<svg xmlns="http://www.w3.org/2000/svg" version="1.1" xmlns:xlink="http://www.w3.org/1999/xlink" xmlns:svgjs="http://svgjs.dev/svgjs" viewBox="0 0 800 800"><defs><linearGradient x1="50%" y1="0%" x2="50%" y2="100%" id="ccchaos-grad"><stop stop-color="hsl(105, 69%, 40%)" stop-opacity="1" offset="0%"></stop><stop stop-color="hsl(105, 69%, 60%)" stop-opacity="1" offset="100%"></stop></linearGradient></defs><g stroke-width="2" stroke="url(#ccchaos-grad)" fill="none" stroke-linecap="round"><path d="M415.97 105.78C426.22 103.92 436.63 102.85 447.17 102.59 457.71 102.67 468.35 103.59 479.03 105.32 489.65 107.42 500.21 110.32 510.58 113.96 520.75 117.92 530.55 122.57 539.8 127.82 548.61 133.29 556.64 139.29 563.69 145.75 570.05 152.31 575.25 159.24 579.16 166.48 582.36 173.71 584.32 181.19 585.15 188.85 585.7 196.42 585.59 204.15 585.18 212.01 585.49 219.72 586.34 227.54 588.23 235.46 591.98 243.23 597.5 251.1 605.04 259.08 614.83 266.92 626.51 274.89 639.71 282.99 653.95 290.98 668.37 299.13 682.03 307.46 694.19 315.7 703.79 324.15 709.98 332.81 712.69 341.41 711.35 350.25 706.09 359.34 698.14 368.39 687.81 377.7 676.34 387.28 665.73 396.85 656.66 406.7 650.35 416.82 648.12 426.94 649.72 437.11 654.75 447.29 663.01 457.47 672.82 467.66 682.9 477.83 692.64 487.99 700.22 498.11 704.77 508.14 706.28 518.12 703.93 527.98 697.92 537.65 688.98 547.24 677.39 556.57 664.02 565.59 649.8 574.44 635.4 582.9 621.58 590.89 608.96 598.63 597.85 605.82 588.46 612.37 581.02 618.6 575.23 624.13 570.84 628.89 564.47 639.06 555.54 645.69 549.92 645.38 545.42 645.08 539.9 644.43 533.43 643.57 526.55 643.11 518.85 642.66 510.47 642.36 501.82 642.77 492.65 643.53 483.08 644.7 473.4 646.78 463.44 649.37 453.29 652.45 443.11 656.41 432.8 660.78 422.4 665.43 412 670.68 401.75 675.8 391.66 680.63 381.55 685.56 371.55 689.85 361.64 693.37 351.66 696.53 341.72 698.66 331.79 699.68 321.73 700.06 311.63 699.22 301.49 697.19 291.22 694.41 280.91 690.46 270.59 685.43 260.22 679.75 249.93 673.1 239.8 665.63 229.83 657.7 220.19 649.1 211.01 639.97 202.25 630.61 194.14 620.86 186.82 610.86 180.09 600.8 174.25 590.59 169.32 580.32 164.94 570.12 161.37 559.91 158.53 549.74 155.86 539.7 153.62 529.71 151.64 519.79 149.3 510.01 146.89 500.29 144.29 490.62 140.98 481.07 137.37 471.54 133.51 462.04 129.06 452.61 124.6 443.17 120.35 433.73 116.1 424.32 112.5 414.88 109.8 405.41 107.73 395.95 106.87 386.45 107.29 376.92 108.47 367.39 110.76 358.05 113.91 348.93 117.27 339.81 121.02 330.91 124.93 322.26 128.37 313.61 131.62 305.24 134.6 297.15 136.83 289.08 138.82 281.32 140.67 273.89 142.06 266.5 143.64 259.44 145.57 252.75 147.61 246.09 150.37 239.78 153.95 233.86 158.08 227.93 163.19 222.36 169.25 217.16 175.95 211.91 183.52 206.98 191.81 202.37 200.53 197.65 209.76 193.2 219.34 188.99 229.01 184.6 238.83 180.4 248.69 176.37 258.4 172.08 268.04 167.92 277.58 163.87 286.86 159.51 296.05 155.24 305.18 151.06 314.05 146.58 322.92 142.2 331.85 137.97 340.6 133.49 349.48 129.21 358.56 125.19 367.54 121.05 376.78 117.26 386.33 113.91 395.84 110.62 405.71 107.88 415.96 105.78" stroke-dasharray="0 0" transform="rotate(0, 400, 400)" opacity="1.00"></path><path d="M420.7 116.54C430.66 114.7 440.66 113.61 450.64 113.29 460.61 113.29 470.54 114.1 480.34 115.68 490.05 117.62 499.53 120.32 508.66 123.73 517.55 127.45 525.93 131.84 533.64 136.82 540.93 142.03 547.38 147.77 552.85 153.96 557.77 160.27 561.63 166.96 564.4 173.97 566.73 180.99 568.15 188.28 568.82 195.77 569.57 203.2 570.08 210.8 570.71 218.53 572.32 226.16 574.77 233.9 578.44 241.74 583.93 249.46 591.12 257.28 600.09 265.2 610.91 272.99 623.17 280.91 636.43 288.94 650.2 296.87 663.68 304.95 676.01 313.17 686.62 321.32 694.58 329.65 699.24 338.16 700.7 346.61 698.48 355.28 692.79 364.15 684.85 373 674.93 382.08 664.12 391.39 654.23 400.68 645.81 410.22 639.9 420 637.72 429.78 638.99 439.57 643.41 449.34 650.84 459.11 659.83 468.86 669.26 478.55 678.64 488.22 686.3 497.82 691.42 507.28 693.97 516.71 693.06 525.96 688.74 534.99 681.63 543.93 671.8 552.6 659.95 560.91 646.91 569.07 633.21 576.82 619.59 584.08 606.63 591.11 594.71 597.6 584.13 603.46 575.16 609.04 567.69 613.95 561.59 618.15 551.11 627.09 540.07 632.95 535.2 632.77 529.22 632.41 512.6 631.36 502.12 631.29 494.67 631.96 486.61 632.95 478.03 634.3 469.33 636.5 460.23 639.13 450.79 642.18 441.31 646.04 431.56 650.24 421.58 654.67 411.6 659.64 401.63 664.49 391.7 669.05 381.76 673.72 371.82 677.81 361.9 681.19 351.93 684.27 341.94 686.41 331.92 687.55 321.84 688.12 311.71 687.57 301.55 685.93 291.37 683.61 281.19 680.2 271.07 675.77 261.03 670.73 251.16 664.77 241.56 657.99 232.22 650.76 223.32 642.85 214.97 634.39 207.08 625.67 199.9 616.53 193.53 607.09 187.71 597.55 182.74 587.81 178.61 577.95 174.9 568.11 171.89 558.23 169.47 548.34 167.09 538.54 164.99 528.76 163.04 519.03 160.64 509.41 158.09 499.84 155.3 490.32 151.79 480.9 147.99 471.51 143.95 462.16 139.39 452.88 134.85 443.62 130.55 434.37 126.32 425.16 122.75 415.95 120.1 406.74 118.09 397.54 117.28 388.34 117.73 379.14 118.95 369.95 121.26 360.97 124.43 352.23 127.83 343.5 131.65 335 135.65 326.76 139.21 318.53 142.61 310.56 145.74 302.9 148.13 295.24 150.25 287.89 152.17 280.86 153.56 273.85 155.03 267.17 156.74 260.83 158.44 254.5 160.73 248.5 163.72 242.86 167.16 237.19 171.5 231.85 176.74 226.84 182.6 221.76 189.34 216.98 196.85 212.47 204.87 207.84 213.48 203.45 222.56 199.27 231.86 194.9 241.44 190.7 251.16 186.65 260.87 182.35 270.6 178.16 280.29 174.07 289.83 169.7 299.31 165.41 308.72 161.22 317.93 156.76 327.12 152.4 336.31 148.19 345.35 143.77 354.45 139.54 363.66 135.58 372.78 131.52 382.07 127.81 391.56 124.53 401.02 121.3 410.73 118.61 420.69 116.54" stroke-dasharray="0 0" transform="rotate(4.04, 400, 400)" opacity="0.96"></path><path d="M422.49 127.3C432.09 125.48 441.59 124.38 450.93 124 460.25 123.94 469.38 124.63 478.23 126.07 486.98 127.84 495.35 130.33 503.25 133.52 510.92 137 517.98 141.13 524.32 145.84 530.31 150.77 535.47 156.23 539.73 162.13 543.62 168.17 546.62 174.6 548.79 181.36 550.79 188.15 552.21 195.22 553.22 202.5 554.63 209.75 556.15 217.19 558.09 224.77 561.18 232.27 565.27 239.9 570.63 247.63 577.67 255.26 586.22 263 596.27 270.83 607.72 278.55 620.17 286.39 633.14 294.33 646.15 302.18 658.48 310.17 669.37 318.28 678.4 326.31 684.79 334.51 688.03 342.86 688.37 351.16 685.42 359.65 679.43 368.31 671.59 376.94 662.11 385.78 651.96 394.8 642.78 403.82 634.98 413.05 629.46 422.47 627.32 431.89 628.3 441.28 632.13 450.63 638.78 459.98 646.96 469.26 655.71 478.45 664.65 487.63 672.27 496.69 677.79 505.58 681.18 514.43 681.52 523.08 678.76 531.47 673.39 539.78 665.33 547.77 655.13 555.41 643.48 562.89 630.81 569.96 617.77 576.54 604.91 582.91 592.64 588.74 581.3 593.98 571.19 598.98 562.33 603.34 554.72 607.05 545.88 611.89 533.81 618.03 529.2 619.46 525.07 620.3 514.8 620.24 508.05 619.83 503.15 619.92 497.53 620.06 491.22 620.34 484.74 621.25 477.62 622.44 469.93 623.96 462.14 626.24 453.84 628.9 445.11 631.92 436.35 635.66 427.19 639.69 417.7 643.91 408.2 648.62 398.6 653.19 388.93 657.49 379.27 661.91 369.53 665.79 359.74 669.02 349.95 672 340.09 674.14 330.19 675.36 320.29 676.1 310.36 675.81 300.44 674.51 290.57 672.62 280.78 669.7 271.13 665.83 261.65 661.4 252.43 656.08 243.58 649.98 235.06 643.43 227.04 636.22 219.64 628.44 212.71 620.37 206.5 611.87 201.07 603.02 196.14 594.04 191.97 584.82 188.54 575.44 185.41 566.04 182.84 556.54 180.72 547.01 178.51 537.52 176.46 528.02 174.45 518.55 171.91 509.16 169.17 499.8 166.15 490.49 162.43 481.25 158.44 472.05 154.23 462.9 149.57 453.81 144.98 444.74 140.67 435.72 136.47 426.73 132.97 417.76 130.38 408.82 128.45 399.89 127.69 390.99 128.17 382.12 129.42 373.25 131.74 364.62 134.91 356.25 138.34 347.87 142.21 339.74 146.27 331.89 149.95 324.04 153.48 316.46 156.77 309.18 159.34 301.89 161.62 294.91 163.66 288.24 165.12 281.57 166.56 275.21 168.14 269.19 169.59 263.14 171.5 257.41 173.99 252.01 176.79 246.56 180.41 241.41 184.85 236.55 189.85 231.62 195.71 226.94 202.36 222.51 209.54 217.95 217.38 213.59 225.78 209.43 234.5 205.07 243.59 200.86 252.95 196.79 262.41 192.47 271.99 188.26 281.62 184.15 291.2 179.77 300.77 175.48 310.29 171.29 319.7 166.84 329.07 162.52 338.41 158.35 347.65 153.99 356.89 149.83 366.16 145.94 375.37 141.97 384.66 138.34 394.04 135.13 403.39 131.98 412.88 129.34 422.48 127.31" stroke-dasharray="0 0" transform="rotate(8.08, 400, 400)" opacity="0.92"></path><path d="M421.08 138.07C430.25 136.26 439.19 135.15 447.85 134.73 456.48 134.6 464.79 135.18 472.71 136.48 480.53 138.08 487.88 140.38 494.67 143.34 501.28 146.58 507.24 150.44 512.49 154.87 517.5 159.52 521.75 164.68 525.24 170.29 528.55 176.05 531.19 182.19 533.26 188.67 535.41 195.21 537.28 202.02 539.07 209.07 541.46 216.12 544.22 223.35 547.62 230.75 552.21 238.08 557.84 245.56 564.7 253.15 573.01 260.66 582.59 268.27 593.31 275.99 605.01 283.61 617.28 291.34 629.63 299.16 641.65 306.91 652.67 314.77 662.05 322.75 669.53 330.66 674.42 338.71 676.38 346.88 675.74 355.02 672.19 363.3 666.02 371.74 658.35 380.15 649.34 388.72 639.86 397.46 631.37 406.18 624.16 415.08 619.02 424.12 616.93 433.17 617.64 442.17 620.93 451.08 626.83 459.98 634.21 468.79 642.26 477.48 650.7 486.14 658.15 494.66 663.91 502.98 667.96 511.25 669.37 519.3 668 527.07 664.26 534.75 657.93 542.1 649.41 549.09 639.32 555.93 627.92 562.35 615.8 568.3 603.46 574.06 591.27 579.3 579.61 583.98 568.78 588.46 558.92 592.35 550.09 595.63 542.44 598.71 535.77 601.2 529.94 603.1 522.91 605.49 511.48 607.77 506.01 607.98 500.5 608.23 487.01 608.76 478.77 609.5 472.97 610.63 466.58 612.01 459.61 613.67 452.56 616.01 444.98 618.68 436.92 621.66 428.81 625.28 420.26 629.14 411.29 633.14 402.32 637.6 393.18 641.91 383.89 645.95 374.63 650.11 365.24 653.78 355.76 656.86 346.31 659.74 336.78 661.85 327.22 663.14 317.72 664 308.22 663.94 298.78 662.94 289.47 661.43 280.29 658.97 271.34 655.62 262.63 651.75 254.25 647.05 246.3 641.59 238.72 635.71 231.69 629.17 225.29 622.07 219.34 614.67 214.07 606.82 209.54 598.59 205.41 590.21 201.93 581.55 199.09 572.69 196.4 563.78 194.14 554.73 192.2 545.61 190.04 536.5 187.94 527.35 185.78 518.21 183.05 509.11 180.07 500.02 176.81 490.97 172.88 481.98 168.69 473.02 164.35 464.11 159.61 455.25 155 446.42 150.7 437.64 146.57 428.9 143.15 420.19 140.64 411.53 138.8 402.88 138.1 394.28 138.62 385.73 139.88 377.19 142.19 368.89 145.35 360.87 148.79 352.83 152.67 345.06 156.78 337.56 160.56 330.06 164.24 322.83 167.68 315.9 170.45 308.95 172.92 302.3 175.11 295.95 176.7 289.58 178.19 283.51 179.72 277.75 181.83 269.2 188.48 253.48 193.66 246.25 197.82 241.43 202.8 236.83 208.55 232.46 214.81 227.95 221.77 223.61 229.34 219.45 237.29 215.1 245.71 210.88 254.48 206.78 263.45 202.46 272.65 198.23 281.97 194.1 291.34 189.72 300.77 185.43 310.19 181.25 319.58 176.84 328.95 172.56 338.27 168.44 347.55 164.15 356.79 160.07 366.01 156.26 375.19 152.38 384.37 148.84 393.55 145.71 402.72 142.64 411.9 140.07 421.07 138.07" stroke-dasharray="0 0" transform="rotate(12.12, 400, 400)" opacity="0.89"></path><path d="M416.67 148.83C425.36 147.05 433.71 145.93 441.7 145.47 449.65 145.27 457.19 145.76 464.28 146.91 471.27 148.35 477.75 150.46 483.66 153.19 489.43 156.19 494.59 159.79 499.11 163.93 503.49 168.29 507.25 173.15 510.43 178.45 513.6 183.91 516.33 189.75 518.73 195.92 521.43 202.18 524.09 208.72 526.93 215.51 530.49 222.3 534.59 229.31 539.44 236.48 545.42 243.62 552.4 250.91 560.46 258.31 569.69 265.66 579.9 273.12 590.9 280.67 602.48 288.16 614.23 295.75 625.7 303.43 636.54 311.04 646.15 318.75 654.01 326.56 659.99 334.33 663.5 342.2 664.31 350.18 662.85 358.12 658.83 366.2 652.58 374.38 645.15 382.55 636.64 390.86 627.82 399.28 619.99 407.7 613.36 416.25 608.57 424.92 606.54 433.58 607.01 442.16 609.8 450.62 614.99 459.08 621.6 467.41 628.93 475.59 636.81 483.74 644 491.71 649.85 499.47 654.38 507.18 656.66 514.64 656.49 521.8 654.23 528.88 649.54 535.63 642.7 542 634.24 548.24 624.3 554.07 613.35 559.43 601.87 564.64 590.17 569.36 578.63 573.55 567.54 577.57 557.09 581.05 547.42 583.98 538.67 586.77 530.78 589.02 523.7 590.75 514.71 592.99 500.09 595.39 493.59 595.85 487.43 596.41 473.83 597.69 465.99 598.79 460.57 600.11 454.64 601.64 448.19 603.42 441.7 605.81 434.7 608.48 427.2 611.4 419.69 614.9 411.7 618.58 403.29 622.38 394.87 626.58 386.23 630.63 377.44 634.43 368.67 638.34 359.76 641.8 350.77 644.72 341.82 647.49 332.82 649.56 323.81 650.88 314.9 651.84 306.03 651.97 297.3 651.24 288.73 650.06 280.36 648.02 272.28 645.14 264.47 641.8 257.05 637.68 250.11 632.83 243.52 627.59 237.49 621.71 232.08 615.27 227.06 608.54 222.67 601.34 218.93 593.75 215.47 585.99 212.56 577.92 210.15 569.62 207.77 561.25 205.68 552.7 203.79 544.04 201.58 535.37 199.33 526.63 196.95 517.87 193.99 509.12 190.75 500.37 187.23 491.64 183.1 482.94 178.75 474.27 174.28 465.65 169.51 457.05 164.9 448.5 160.66 440 156.62 431.53 153.31 423.1 150.9 414.74 149.15 406.39 148.52 398.09 149.06 389.86 150.34 381.63 152.63 373.67 155.75 365.97 159.18 358.26 163.06 350.82 167.2 343.65 171.06 336.48 174.85 329.57 178.45 322.95 181.42 316.31 184.09 309.95 186.47 303.87 189.04 294.86 193.38 278.18 195.88 270.48 198.94 262.93 208.65 248.86 215.58 242.26 220.9 237.78 226.92 233.46 233.57 229.3 240.63 224.95 248.21 220.72 256.21 216.6 264.48 212.27 273.06 208.04 281.84 203.9 290.76 199.53 299.8 195.26 308.9 191.11 318.03 186.75 327.18 182.52 336.29 178.46 345.41 174.26 354.48 170.27 363.49 166.55 372.49 162.77 381.44 159.33 390.31 156.28 399.18 153.3 407.98 150.79 416.66 148.83" stroke-dasharray="0 0" transform="rotate(16.16, 400, 400)" opacity="0.85"></path><path d="M409.9 159.59C418.06 157.85 425.83 156.72 433.19 156.22 440.51 155.96 447.39 156.35 453.79 157.37 460.13 158.66 465.95 160.57 471.24 163.08 478.79 167.51 491.23 179.37 496.34 186.63 499.74 191.77 502.91 197.29 506 203.15 509.5 209.1 513.17 215.34 517.18 221.83 521.96 228.36 527.36 235.09 533.51 242.01 540.66 248.91 548.7 255.97 557.61 263.16 567.39 270.3 577.85 277.57 588.74 284.93 599.86 292.24 610.81 299.65 621.18 307.14 630.71 314.58 638.87 322.12 645.23 329.74 649.79 337.32 652.05 344.99 651.86 352.75 649.71 360.48 645.36 368.31 639.12 376.24 631.99 384.15 624.01 392.16 615.85 400.26 608.66 408.35 602.56 416.55 598.13 424.82 596.16 433.09 596.41 441.24 598.73 449.25 603.26 457.25 609.12 465.1 615.73 472.77 623.02 480.41 629.85 487.86 635.66 495.06 640.49 502.22 643.44 509.11 644.29 515.7 643.34 522.21 640.16 528.39 634.93 534.19 628.11 539.88 619.72 545.17 610.14 550.01 599.81 554.72 588.95 558.98 577.92 562.74 567 566.38 556.39 569.52 546.3 572.17 536.84 574.72 528.06 576.79 519.98 578.4 512.65 579.98 505.92 581.17 499.71 581.98 491.45 583.19 476.52 584.77 469.22 585.49 461.96 586.76 445.93 590.51 436.94 593.22 430.8 595.64 424.21 598.29 417.19 601.15 410.15 604.52 402.68 608.03 394.81 611.62 386.94 615.57 378.86 619.37 370.64 622.92 362.44 626.59 354.13 629.84 345.76 632.6 337.44 635.25 329.11 637.26 320.83 638.59 312.66 639.63 304.59 639.91 296.71 639.42 289.01 638.53 281.57 636.85 274.47 634.41 267.63 631.56 261.21 627.97 255.29 623.7 249.68 619.06 244.6 613.81 240.11 608.01 235.91 601.94 232.27 595.39 229.18 588.45 226.25 581.32 223.74 573.86 221.61 566.15 219.38 558.34 217.33 550.34 215.37 542.19 213.01 534.01 210.55 525.72 207.9 517.39 204.67 509.05 201.17 500.69 197.4 492.32 193.08 483.98 188.59 475.64 184.04 467.34 179.27 459.06 174.7 450.82 170.54 442.63 166.63 434.46 163.44 426.34 161.14 418.29 159.5 410.24 158.94 402.25 159.5 394.35 160.78 386.44 163.04 378.8 166.12 371.41 169.51 364.03 173.37 356.9 177.51 350.04 181.43 343.16 185.32 336.55 189.05 330.21 192.22 323.85 195.1 317.75 197.7 311.92 200.57 303.25 205.11 287.14 207.4 279.65 209.95 272.28 217.86 258.43 223.57 251.88 227.98 247.43 233.07 243.12 238.76 238.95 244.86 234.61 251.5 230.37 258.6 226.25 266.02 221.92 273.79 217.69 281.85 213.55 290.1 209.22 298.53 204.98 307.08 200.86 315.73 196.56 324.43 192.41 333.13 188.42 341.87 184.32 350.59 180.42 359.22 176.8 367.89 173.13 376.46 169.79 384.92 166.84 393.39 163.95 401.72 161.51 409.88 159.59" stroke-dasharray="0 0" transform="rotate(20.200000000000003, 400, 400)" opacity="0.81"></path><path d="M401.71 170.35C409.34 168.65 416.56 167.53 423.37 166.99 430.16 166.68 436.5 166.97 442.4 167.86 450.96 169.86 465.8 177.07 472.17 182.17 476.35 185.94 480.24 190.18 483.92 194.84 487.84 199.65 491.71 204.84 495.67 210.36 500.1 215.99 504.84 221.91 510.02 228.08 515.92 234.3 522.44 240.74 529.65 247.36 537.68 253.99 546.41 260.79 555.79 267.71 565.74 274.62 576.05 281.65 586.5 288.78 596.86 295.88 606.79 303.07 615.91 310.34 624.06 317.57 630.77 324.9 635.7 332.29 638.95 339.65 640.1 347.09 639.07 354.6 636.38 362.09 631.82 369.66 625.68 377.29 618.89 384.92 611.45 392.62 603.93 400.38 597.36 408.14 591.79 415.96 587.69 423.82 585.79 431.69 585.84 439.41 587.73 446.97 591.63 454.51 596.78 461.89 602.69 469.06 609.34 476.2 615.74 483.13 621.4 489.81 626.37 496.44 629.81 502.79 631.47 508.84 631.62 514.82 629.79 520.47 626.06 525.75 620.84 530.94 614.03 535.74 605.93 540.13 596.94 544.41 587.19 548.27 577 551.68 566.64 554.98 556.31 557.86 546.21 560.28 536.47 562.64 527.2 564.59 518.45 566.14 510.28 567.69 502.66 568.9 495.52 569.8 488.93 570.8 482.7 571.58 476.75 572.17 468.45 573.35 452.4 575.98 444.21 577.7 438.78 579.33 433.08 581.11 427.08 583.06 421.1 585.5 414.78 588.12 408.12 590.89 401.45 594.13 394.43 597.47 387.07 600.86 379.71 604.57 372.2 608.12 364.6 611.43 357.02 614.86 349.37 617.91 341.71 620.51 334.11 623.02 326.56 624.96 319.1 626.29 311.76 627.37 304.57 627.78 297.63 627.48 290.86 626.85 284.38 625.5 278.28 623.44 272.41 621.03 266.96 617.93 261.99 614.2 257.27 610.14 253.05 605.49 249.33 600.31 245.82 594.86 242.76 588.96 240.15 582.65 237.57 576.15 235.31 569.32 233.29 562.21 231.08 555 228.95 547.56 226.8 539.95 224.23 532.29 221.49 524.51 218.55 516.65 215.04 508.77 211.27 500.83 207.28 492.88 202.8 484.93 198.22 476.97 193.63 469.04 188.89 461.12 184.41 453.22 180.35 445.37 176.59 437.53 173.55 429.74 171.38 422.01 169.85 414.29 169.36 406.62 169.95 399.04 171.22 391.46 173.44 384.13 176.45 377.05 179.78 369.97 183.6 363.14 187.71 356.56 191.66 349.97 195.63 343.63 199.48 337.55 202.83 331.44 205.92 325.57 208.74 319.96 211.97 311.6 216.92 295.97 219.16 288.66 221.39 281.44 227.9 267.77 232.56 261.27 236.15 256.84 240.35 252.55 245.12 248.38 250.25 244.04 255.92 239.81 262.07 235.69 268.52 231.38 275.38 227.17 282.57 223.05 289.98 218.76 297.64 214.57 305.46 210.5 313.43 206.29 321.49 202.21 329.6 198.31 337.78 194.32 345.96 190.53 354.08 187.01 362.25 183.47 370.33 180.24 378.28 177.38 386.25 174.59 394.07 172.23 401.7 170.36" stroke-dasharray="0 0" transform="rotate(24.24, 400, 400)" opacity="0.77"></path><path d="M393.28 181.12C400.38 179.45 407.11 178.34 413.47 177.77 422.8 177.51 439.53 180.14 446.98 182.99 454.17 186.69 467.47 196.81 473.94 203.09 478.52 207.57 483.2 212.42 488.08 217.59 493.45 222.88 499.19 228.45 505.38 234.28 512.2 240.17 519.57 246.29 527.52 252.59 536.07 258.92 545.13 265.41 554.58 272.04 564.33 278.67 574.17 285.43 583.87 292.28 593.25 299.12 601.99 306.06 609.78 313.07 616.52 320.06 621.82 327.13 625.42 334.26 627.5 341.37 627.69 348.55 625.97 355.78 622.88 363 618.21 370.28 612.26 377.6 605.85 384.92 598.97 392.29 592.08 399.69 586.1 407.09 581.02 414.53 577.24 421.98 575.42 429.43 575.29 436.72 576.8 443.82 580.12 450.92 584.58 457.82 589.79 464.5 595.8 471.17 601.71 477.6 607.11 483.77 613.95 492.83 618.82 509.38 616.1 516.78 612.38 521.52 607.11 525.89 600.53 529.88 592.99 533.79 584.54 537.31 575.45 540.42 565.98 543.46 556.29 546.12 546.58 548.38 536.98 550.61 527.62 552.48 518.6 554 509.97 555.56 501.75 556.82 493.96 557.82 486.59 558.94 479.6 559.88 472.92 560.65 466.6 561.66 460.47 562.59 454.47 563.49 448.7 564.71 442.94 565.98 437.14 567.32 431.45 569.07 425.63 570.94 419.64 572.94 413.68 575.38 407.51 577.95 401.11 580.65 394.71 583.74 388.06 586.91 381.17 590.09 374.28 593.57 367.32 596.88 360.34 599.96 353.38 603.16 346.41 606 339.51 608.43 332.66 610.8 325.9 612.66 319.31 613.97 312.81 615.08 306.53 615.57 300.52 615.44 291.88 614.49 276.67 608.91 270.24 604.35 264.5 598.77 255.28 584.65 251.63 576.32 249.24 570.45 247.06 564.24 245.01 557.74 242.7 551.13 240.37 544.27 237.97 537.23 235.12 530.13 232.08 522.87 228.83 515.52 225.05 508.13 221.05 500.66 216.86 493.16 212.28 485.65 207.63 478.11 203.05 470.57 198.38 463.04 194.02 455.52 190.11 448.04 186.52 440.56 183.64 433.12 181.61 425.73 180.2 418.35 179.78 411.02 180.39 403.77 181.65 396.51 183.82 389.5 186.75 382.72 190 375.94 193.75 369.4 197.81 363.09 201.77 356.77 205.79 350.69 209.73 344.84 213.23 338.96 216.52 333.31 219.57 327.88 223.17 319.8 228.73 304.6 231.07 297.45 233.17 290.36 238.7 276.86 242.52 270.39 245.42 266 248.84 261.72 252.78 257.56 256.99 253.25 261.73 249.04 266.93 244.92 272.41 240.65 278.31 236.47 284.56 232.39 291.04 228.16 297.81 224.03 304.79 220.04 311.93 215.91 319.22 211.94 326.6 208.14 334.07 204.26 341.58 200.6 349.08 197.19 356.62 193.77 364.11 190.66 371.49 187.9 378.9 185.21 386.17 182.94 393.27 181.12" stroke-dasharray="0 0" transform="rotate(28.28, 400, 400)" opacity="0.73"></path><path d="M385.81 191.88C392.41 190.26 398.72 189.15 404.73 188.56 413.59 188.22 429.89 190.46 437.43 193.01 444.88 196.36 459.43 205.61 466.86 211.41 472.13 215.55 477.6 220.04 483.33 224.86 489.5 229.79 496.04 235 503 240.47 510.46 246.01 518.36 251.77 526.68 257.73 535.38 263.72 544.38 269.88 553.55 276.19 562.77 282.5 571.85 288.95 580.57 295.49 588.81 302.04 596.27 308.68 602.68 315.39 608.06 322.1 612.03 328.88 614.43 335.71 615.48 342.54 614.87 349.42 612.61 356.34 609.26 363.26 604.59 370.22 598.88 377.21 592.9 384.19 586.57 391.21 580.29 398.24 574.88 405.27 570.27 412.31 566.8 419.34 565.05 426.38 564.78 433.23 565.93 439.88 568.71 446.53 572.53 452.98 577.07 459.2 582.42 465.4 587.8 471.36 592.85 477.05 599.63 485.42 606.18 500.62 605.11 507.38 602.72 511.73 598.9 515.73 593.8 519.38 587.74 522.97 580.7 526.21 572.88 529.08 564.55 531.92 555.79 534.41 546.81 536.55 537.73 538.69 528.68 540.52 519.78 542.05 511.07 543.63 502.64 544.97 494.52 546.09 486.69 547.33 479.19 548.42 471.99 549.38 465.08 550.56 458.4 551.67 451.91 552.76 445.64 554.15 439.46 555.58 433.35 557.06 427.36 558.9 421.35 560.83 415.3 562.86 409.29 565.28 403.19 567.8 396.97 570.4 390.76 573.35 384.42 576.34 377.95 579.33 371.47 582.58 365.02 585.65 358.63 588.51 352.25 591.48 345.95 594.11 339.77 596.38 330.65 599.49 313.47 603.04 305.59 603.32 298.19 602.68 285.29 598.07 279.87 594.16 274.95 589.33 266.81 576.9 263.38 569.46 261.01 564.2 258.76 558.6 256.56 552.7 254.03 546.69 251.45 540.43 248.74 533.96 245.58 527.43 242.24 520.72 238.68 513.89 234.67 507.02 230.47 500.06 226.14 493.03 221.49 485.99 216.85 478.89 212.32 471.79 207.77 464.68 203.55 457.57 199.82 450.47 196.42 443.38 193.72 436.31 191.84 429.28 190.56 422.26 190.21 415.28 190.83 408.36 192.08 401.44 194.18 394.74 197.01 388.26 200.17 381.78 203.82 375.51 207.81 369.47 211.75 363.41 215.77 357.56 219.78 351.93 223.41 346.28 226.87 340.82 230.12 335.58 234.12 327.74 240.4 312.94 242.97 305.93 245.13 298.96 250.12 285.63 253.34 279.22 257.09 272.74 267.09 260.11 273.37 253.94 277.92 249.72 282.89 245.59 288.22 241.57 293.75 237.42 299.59 233.37 305.69 229.47 311.93 225.45 318.37 221.58 324.95 217.9 331.63 214.15 338.39 210.62 345.19 207.34 352.03 204.06 358.88 201.07 365.66 198.42 372.47 195.84 379.19 193.64 385.8 191.88" stroke-dasharray="0 0" transform="rotate(32.32, 400, 400)" opacity="0.70"></path><path d="M380.35 202.64C389.48 200.53 406.73 198.96 414.89 199.51 422.93 200.83 438.57 206.09 446.37 209.96 451.74 212.85 457.21 216.14 462.82 219.8 468.7 223.6 474.82 227.74 481.21 232.19 487.95 236.76 495.03 241.6 502.44 246.69 510.2 251.86 518.27 257.25 526.59 262.83 535.09 268.46 543.69 274.27 552.26 280.21 560.68 286.18 568.78 292.28 576.36 298.49 583.36 304.7 589.5 311.01 594.57 317.39 598.66 323.78 601.43 330.23 602.76 336.74 602.95 343.24 601.69 349.79 599.05 356.38 595.54 362.96 590.96 369.57 585.56 376.2 580.02 382.83 574.25 389.48 568.57 396.12 563.7 402.76 559.54 409.4 556.36 416.01 554.68 422.62 554.29 429.04 555.13 435.26 557.41 441.47 560.62 447.47 564.52 453.24 569.21 459 574.03 464.51 578.66 469.77 585.2 477.49 592.87 491.47 593.14 497.68 590.65 503.52 578.25 513.56 568.99 517.75 561.95 520.42 554.34 522.79 546.34 524.85 538.1 526.94 529.7 528.75 521.27 530.32 512.87 531.95 504.59 533.37 496.49 534.61 488.56 535.98 480.86 537.21 473.42 538.34 466.17 539.68 459.15 540.96 452.34 542.22 445.7 543.75 439.21 545.3 432.86 546.89 426.62 548.8 420.45 550.78 414.32 552.82 408.25 555.2 402.19 557.65 396.11 560.15 390.06 562.95 383.97 565.77 377.85 568.57 371.74 571.59 365.74 574.44 359.88 577.08 354.03 579.82 348.33 582.26 342.81 584.36 334.67 587.27 319.62 590.72 312.82 591.13 300.87 588.86 286.21 579.51 282.34 574.43 278.57 568.63 271.41 554.86 267.73 547.05 264.93 541.63 262.03 535.96 259 530.07 255.54 524.11 251.9 517.96 248.08 511.68 243.87 505.34 239.53 498.9 235.11 492.36 230.46 485.81 225.86 479.2 221.44 472.54 217.05 465.88 213.02 459.2 209.49 452.51 206.3 445.83 203.8 439.15 202.08 432.5 200.92 425.85 200.64 419.23 201.28 412.65 202.49 406.07 204.52 399.69 207.24 393.51 210.29 387.33 213.83 381.34 217.71 375.55 221.59 369.75 225.59 364.14 229.62 358.72 233.35 353.27 236.95 348.01 240.38 342.93 244.75 335.34 251.82 320.91 254.72 314.05 257.09 307.21 261.98 294.06 264.84 287.71 267.99 281.31 276.24 268.83 281.43 262.74 285.17 258.59 289.3 254.53 293.78 250.59 298.42 246.53 303.38 242.59 308.61 238.79 313.97 234.89 319.56 231.16 325.34 227.6 331.19 224 337.19 220.6 343.27 217.46 349.4 214.31 355.59 211.45 361.78 208.92 367.99 206.45 374.19 204.34 380.34 202.64" stroke-dasharray="0 0" transform="rotate(36.36, 400, 400)" opacity="0.66"></path><path d="M377.68 213.4C386.26 211.35 402.93 209.71 411.06 210.13 421.97 211.49 432.83 214.63 443.88 219.37 455.56 224.73 467.96 231.56 481.26 239.61 495.55 248.1 510.83 257.62 526.68 267.95 542.6 278.49 557.82 289.69 571.05 301.33 581.81 313.05 588.61 325.13 590.47 337.41 588.58 349.72 582.16 362.2 572.31 374.7 567.24 380.95 562.02 387.21 556.91 393.45 552.55 399.7 548.81 405.92 545.91 412.11 544.33 418.29 543.83 424.29 544.38 430.08 546.21 435.86 548.87 441.44 552.15 446.78 560.82 457.44 569.26 467.15 575.67 475.79 580.15 484.33 580.34 491.78 576.15 498.05 568.82 504.25 557.94 509.35 544.66 513.37 530.03 517.52 514.54 520.83 499.06 523.42 483.77 526.54 469.06 529.3 455.14 531.86 441.68 535.4 428.83 539.04 416.51 542.82 410.42 545.15 404.42 547.51 398.48 549.9 392.57 552.56 386.71 555.2 380.91 557.81 375.11 560.61 369.51 563.24 364.1 565.66 358.7 568.19 353.5 570.43 348.53 572.36 338.62 576.18 329.69 578.39 321.88 578.88 314.15 578.77 307.53 576.73 302 572.86 296.23 568.25 291.15 561.91 286.49 554.09 280.84 545.71 274.98 536.08 268.64 525.52 260.82 514.66 252.44 503.08 243.79 491.07 234.51 478.95 226.01 466.53 219.13 454.02 216.17 447.76 213.87 441.49 212.31 435.23 211.28 428.97 211.07 422.71 211.72 416.49 212.9 410.26 214.84 404.21 217.45 398.33 220.37 392.45 223.77 386.74 227.52 381.2 235.01 370.1 242.83 359.64 250.32 349.85 256.26 339.91 261.51 330.54 266.18 321.73 269.48 312.66 272.87 304.03 276.75 295.86 280.31 287.31 285.01 279.1 290.98 271.3 297.27 263.1 304.94 255.28 313.78 248 322.99 240.44 333.14 233.54 343.92 227.54 349.37 224.54 354.92 221.82 360.56 219.4 366.21 217.05 371.92 215.04 377.67 213.41" stroke-dasharray="0 0" transform="rotate(40.400000000000006, 400, 400)" opacity="0.62"></path><path d="M378.19 224.17C388.99 221.37 399.78 220.27 410.56 220.79 421.5 221.9 432.71 224.64 444.31 228.87 456.42 233.66 469.26 239.83 482.83 247.15 496.98 254.88 511.68 263.61 526.39 273.13 540.66 282.87 553.73 293.27 564.5 304.11 572.82 315.05 577.41 326.36 577.64 337.86 574.85 349.4 568.35 361.11 559.16 372.81 550.22 384.54 541.77 396.25 535.47 407.77 533.66 419.29 535.41 430.05 539.96 439.96 547.4 449.82 554.94 458.78 561.08 466.76 566.03 474.67 567.52 481.58 565.29 487.45 560.42 493.3 552.17 498.19 541.38 502.15 529.07 506.29 515.46 509.71 501.37 512.52 487.07 515.85 472.97 518.86 459.42 521.67 446.11 525.35 433.36 529.08 421.23 532.84 409.25 537.61 397.71 542.41 386.68 547.04 375.65 552.36 365.58 556.89 356.49 560.4 347.39 563.93 339.29 566.02 332.24 566.58 325.12 566.68 318.93 565.06 313.57 561.79 307.78 557.91 302.43 552.45 297.26 545.6 291.07 538.27 284.57 529.74 277.62 520.27 269.42 510.52 260.83 500.03 252.19 489.05 243.21 477.96 235.15 466.5 228.75 454.87 223.71 443.22 221.38 431.46 222.16 419.73 224.9 408.01 230.19 396.85 237.24 386.31 244.53 375.72 252.3 365.69 259.92 356.24 266.26 346.65 272.02 337.55 277.22 328.95 281.07 320.12 284.83 311.67 288.81 303.64 292.24 295.29 296.49 287.26 301.73 279.64 307.04 271.69 313.54 264.13 321.15 257.11 328.97 249.88 337.78 243.3 347.39 237.59 357.07 231.94 367.39 227.38 378.18 224.17" stroke-dasharray="0 0" transform="rotate(44.44, 400, 400)" opacity="0.58"></path><path d="M381.8 234.93C391.97 232.25 402.42 231.12 413.13 231.48 423.97 232.35 435.27 234.73 447.05 238.47 459.17 242.71 471.92 248.22 485.14 254.82 498.56 261.8 512.11 269.73 525.2 278.42 537.5 287.34 548.28 296.9 556.63 306.9 562.71 317.02 565.4 327.51 564.34 338.19 560.94 348.92 554.56 359.81 546.1 370.69 538.14 381.59 530.67 392.47 525.02 403.15 523.23 413.83 524.39 423.79 527.97 432.93 534.21 442.05 540.79 450.33 546.45 457.71 551.54 465.05 553.91 471.51 553.22 477.04 550.43 482.6 544.57 487.33 536.22 491.27 526.35 495.41 514.89 498.94 502.58 501.95 489.8 505.44 476.84 508.65 464.12 511.66 451.46 515.43 439.2 519.18 427.51 522.9 415.92 527.47 404.83 531.99 394.34 536.28 383.85 541.16 374.39 545.28 365.93 548.47 357.4 551.7 349.83 553.66 343.18 554.26 336.35 554.51 330.25 553.23 324.75 550.49 318.72 547.25 312.92 542.57 307.14 536.62 300.4 530.24 293.33 522.74 285.89 514.32 277.46 505.65 268.82 496.22 260.35 486.25 251.78 476.18 244.24 465.69 238.36 454.95 233.81 444.2 231.78 433.26 232.61 422.27 235.22 411.28 240.2 400.76 246.88 390.75 253.9 380.7 261.52 371.11 269.18 362.02 275.81 352.82 282 344.02 287.7 335.66 292.15 327.09 296.39 318.87 300.68 311.04 304.27 302.93 308.4 295.15 313.26 287.76 317.98 280.1 323.69 272.84 330.39 266.12 337.15 259.25 344.9 253.01 353.53 247.61 362.18 242.29 371.63 237.98 381.8 234.93" stroke-dasharray="0 0" transform="rotate(48.48, 400, 400)" opacity="0.54"></path><path d="M387.99 245.69C397.58 243.13 407.64 241.99 418.08 242.21 428.63 242.87 439.7 244.9 451.21 248.17 462.9 251.88 475.03 256.77 487.33 262.66 499.55 268.89 511.52 276.03 522.67 283.89 532.84 291.97 541.33 300.67 547.42 309.8 551.54 319.07 552.67 328.69 550.65 338.52 546.91 348.4 540.82 358.44 533.16 368.48 526.15 378.54 519.61 388.57 514.58 398.42 512.81 408.27 513.47 417.44 516.17 425.87 521.28 434.28 526.84 441.93 531.88 448.78 538.24 458.64 537.07 474.53 529.04 480.76 521.54 484.9 512.33 488.52 502.01 491.7 491.09 495.31 479.66 498.67 468.16 501.82 456.58 505.61 445.17 509.35 434.19 512.99 423.25 517.33 412.75 521.56 402.81 525.52 392.87 529.98 383.9 533.7 375.86 536.57 367.74 539.51 360.44 541.32 353.91 541.92 347.12 542.27 340.87 541.27 335.03 538.97 328.64 536.28 322.32 532.3 315.94 527.15 308.71 521.66 301.21 515.1 293.45 507.67 284.96 500.01 276.45 491.61 268.3 482.64 260.25 473.57 253.29 464.03 247.98 454.2 243.92 444.34 242.18 434.24 243.05 424.01 245.52 413.78 250.17 403.91 256.44 394.46 263.13 384.97 270.51 375.86 278.08 367.16 284.88 358.36 291.41 349.91 297.53 341.83 302.56 333.59 307.34 325.65 312.05 318.06 316 310.26 320.28 302.76 325.06 295.65 329.55 288.34 334.82 281.42 340.93 275.04 346.99 268.55 353.96 262.68 361.83 257.61 369.67 252.62 378.4 248.57 387.99 245.69" stroke-dasharray="0 0" transform="rotate(52.52, 400, 400)" opacity="0.51"></path><path d="M395.89 256.45C404.91 254.03 414.46 252.89 424.42 252.98 434.45 253.45 444.95 255.15 455.75 257.98 466.6 261.18 477.66 265.46 488.61 270.67 499.26 276.18 509.38 282.53 518.44 289.56 526.5 296.8 532.83 304.63 536.93 312.89 539.4 321.27 539.33 330.02 536.68 338.96 532.84 347.97 527.18 357.14 520.35 366.32 514.26 375.53 508.59 384.72 504.14 393.74 502.41 402.77 502.65 411.19 504.57 418.94 508.61 426.68 513.17 433.75 517.47 440.12 523.51 449.33 525.16 464.52 519.87 470.67 514.51 474.8 507.45 478.49 499.17 481.78 490.24 485.46 480.57 488.91 470.56 492.14 460.36 495.91 450.1 499.58 440.05 503.1 430 507.2 420.22 511.14 410.88 514.76 401.52 518.8 392.99 522.15 385.24 524.72 377.4 527.36 370.21 529 363.6 529.58 356.73 529.98 350.22 529.2 343.95 527.28 337.18 525.05 330.4 521.68 323.52 517.25 315.96 512.55 308.2 506.86 300.33 500.35 291.98 493.64 283.79 486.21 276.09 478.2 268.66 470.1 262.34 461.51 257.61 452.57 254.05 443.61 252.6 434.34 253.49 424.89 255.81 415.44 260.12 406.24 265.94 397.37 272.23 388.47 279.28 379.87 286.64 371.6 293.48 363.25 300.19 355.19 306.63 347.45 312.15 339.58 317.45 331.97 322.61 324.7 327.04 317.26 331.64 310.1 336.56 303.33 341.1 296.41 346.23 289.88 352.03 283.87 357.7 277.79 364.17 272.3 371.48 267.57 378.73 262.93 386.87 259.16 395.89 256.45" stroke-dasharray="0 0" transform="rotate(56.56, 400, 400)" opacity="0.47"></path><path d="M404.37 267.22C412.81 264.94 421.72 263.81 430.97 263.79 440.25 264.09 449.86 265.49 459.61 267.9 469.29 270.63 478.95 274.34 488.25 278.88 497.16 283.69 505.33 289.28 512.34 295.5 518.4 301.9 522.83 308.87 525.27 316.25 526.43 323.75 525.5 331.6 522.52 339.66 518.77 347.78 513.65 356.07 507.68 364.39 502.46 372.73 497.6 381.07 493.69 389.29 492.04 397.51 491.92 405.2 493.15 412.3 496.22 419.4 499.8 425.93 503.31 431.84 508.7 440.46 512.02 454.97 508.86 461.04 505.29 465.12 500.16 468.83 493.77 472.19 486.8 475.89 478.94 479.36 470.53 482.61 461.89 486.31 452.96 489.87 444 493.24 435.01 497.07 426.09 500.7 417.39 503.99 408.69 507.64 400.59 510.62 393.07 512.89 385.47 515.25 378.33 516.71 371.59 517.25 364.61 517.66 357.84 517.05 351.2 515.44 344.14 513.61 337.02 510.75 329.83 506.96 322.15 502.96 314.36 498.06 306.6 492.39 298.59 486.56 290.88 480.04 283.77 472.94 277.03 465.77 271.41 458.1 267.27 450.04 264.2 441.96 263.02 433.54 263.94 424.88 266.09 416.21 270.04 407.71 275.38 399.46 281.22 391.19 287.85 383.13 294.89 375.34 301.61 367.49 308.36 359.87 314.95 352.53 320.84 345.09 326.56 337.88 332.13 330.97 337.05 323.95 342.04 317.2 347.22 310.82 351.99 304.33 357.18 298.22 362.88 292.61 368.4 286.97 374.58 281.89 381.48 277.51 388.31 273.23 395.93 269.74 404.37 267.22" stroke-dasharray="0 0" transform="rotate(60.599999999999994, 400, 400)" opacity="0.43"></path><path d="M412.24 277.98C420.05 275.85 428.2 274.76 436.54 274.64 444.89 274.79 453.38 275.92 461.82 277.95 470.13 280.24 478.21 283.39 485.76 287.31 492.89 291.45 499.17 296.3 504.28 301.73 508.6 307.33 511.44 313.44 512.57 319.96 512.79 326.57 511.32 333.53 508.26 340.71 504.78 347.94 500.27 355.35 495.14 362.81 490.75 370.29 486.64 377.81 483.25 385.23 481.68 392.66 481.28 399.64 481.93 406.12 484.13 412.6 486.79 418.6 489.49 424.09 494 432.12 497.95 445.95 496.3 451.89 494.11 455.89 490.56 459.57 485.82 462.94 480.61 466.59 474.45 470.03 467.61 473.24 460.54 476.81 453.01 480.22 445.23 483.39 437.4 486.95 429.42 490.26 421.44 493.23 413.46 496.48 405.83 499.12 398.57 501.11 391.25 503.18 384.19 504.47 377.37 504.94 370.36 505.34 363.45 504.86 356.58 503.5 349.41 501.98 342.18 499.58 334.93 496.35 327.36 492.95 319.79 488.76 312.38 483.85 304.9 478.83 297.81 473.15 291.4 466.92 285.42 460.62 280.51 453.83 276.98 446.63 274.39 439.42 273.46 431.83 274.38 423.97 276.36 416.1 279.94 408.32 284.78 400.72 290.11 393.1 296.24 385.63 302.85 378.37 309.31 371.08 315.92 363.95 322.5 357.07 328.57 350.12 334.55 343.37 340.41 336.9 345.74 330.34 351.1 324.05 356.53 318.11 361.61 312.1 366.95 306.45 372.65 301.28 378.17 296.1 384.19 291.44 390.76 287.43 397.27 283.51 404.42 280.31 412.24 277.98" stroke-dasharray="0 0" transform="rotate(64.64, 400, 400)" opacity="0.39"></path><path d="M418.36 288.74C425.49 286.78 432.77 285.73 440.08 285.54 447.36 285.56 454.61 286.44 461.63 288.12 468.49 290 474.96 292.65 480.81 295.98 488.56 301.56 498.04 315.77 499.05 324.08 498.65 329.83 496.93 335.92 494.01 342.22 490.91 348.57 487.06 355.11 482.77 361.73 479.14 368.36 475.72 375.05 472.8 381.69 471.34 388.34 470.72 394.62 470.89 400.5 473.24 409.12 479.56 424.39 481.92 431.06 483.31 437.48 480.15 448.89 475.55 454.01 471.78 457.56 467.11 460.9 461.69 464.01 456.08 467.4 449.89 470.61 443.28 473.57 436.62 476.82 429.64 479.82 422.44 482.47 415.24 485.34 408.16 487.65 401.26 489.36 394.31 491.16 387.46 492.26 380.72 492.66 373.84 493.03 366.98 492.63 360.13 491.48 353.09 490.22 346.01 488.2 338.96 485.45 331.76 482.59 324.65 479.01 317.79 474.81 311 470.51 304.67 465.6 299.04 460.18 293.86 454.71 289.67 448.75 286.73 442.39 284.6 436.02 283.92 429.26 284.82 422.2 286.62 415.14 289.82 408.11 294.14 401.18 298.92 394.26 304.49 387.42 310.57 380.75 316.63 374.05 322.93 367.48 329.3 361.12 335.36 354.71 341.39 348.48 347.37 342.51 352.95 336.48 358.54 330.69 364.16 325.23 369.48 319.74 374.96 314.59 380.66 309.88 386.2 305.17 392.08 300.95 398.34 297.32 404.55 293.77 411.22 290.87 418.36 288.74" stroke-dasharray="0 0" transform="rotate(68.68, 400, 400)" opacity="0.35"></path><path d="M421.87 299.5C434.65 296.09 447.22 295.86 458.59 298.41 469.38 301.61 477.89 307.44 482.77 315.25 485.97 323.49 484.94 333.41 479.86 344.29 474.77 355.31 468.32 367.04 462.36 378.81 460.84 390.58 461.42 401.22 463.09 410.47 466.98 419.84 469.03 428.08 468.13 435.07 466.56 442.56 461.34 449.23 453.03 454.9 444.16 461.46 432.98 467.25 420.24 471.7 407.5 476.87 394.51 479.81 381.68 480.44 368.57 481.03 355.21 478.93 342.15 474.34 328.99 469.45 316.7 462.12 306.76 452.82 298.53 443.36 294.27 432.15 295.27 419.64 299.15 407.13 307.35 394.56 318.09 382.49 329.1 370.37 341.06 358.63 353 347.82 363.93 336.89 375.06 326.86 386.4 318.41 397.25 310.04 409.08 303.47 421.87 299.5" stroke-dasharray="0 0" transform="rotate(72.72, 400, 400)" opacity="0.32"></path><path d="M422.27 310.27C433.46 307.18 443.82 306.83 452.61 308.84 460.94 311.34 466.96 316.1 469.84 322.59 471.71 329.41 470.29 337.74 465.89 346.98 461.87 356.34 456.81 366.43 451.92 376.69 450.36 386.95 450.13 396.39 450.64 404.76 453.1 413.23 454.33 420.83 453.49 427.4 452.52 434.37 448.7 440.62 442.19 445.93 435.34 451.88 426.19 457.06 415.17 460.94 404.15 465.37 392.45 467.81 380.61 468.28 368.7 468.76 356.53 466.97 344.81 463.09 333.32 459.01 322.84 452.85 314.63 444.93 307.93 436.9 304.64 427.26 305.71 416.37 309.08 405.48 316.12 394.41 325.46 383.7 335.29 372.96 346.24 362.52 357.4 352.89 368.03 343.21 378.85 334.34 389.64 326.89 400.12 319.54 411.07 313.78 422.27 310.27" stroke-dasharray="0 0" transform="rotate(76.76, 400, 400)" opacity="0.28"></path><path d="M419.5 321.03C429.04 318.31 437.34 317.86 443.94 319.4 452.32 323.18 456.4 339.26 452.2 350.36 449.22 358.13 445.39 366.62 441.47 375.4 439.96 384.18 439.14 392.4 438.73 399.83 439.9 407.34 440.24 414.2 439.14 420.23 438.24 426.54 435.21 432.23 430.01 437.06 424.66 442.34 417.23 446.86 407.94 450.18 398.65 453.89 388.51 455.88 378.13 456.18 367.79 456.54 357.27 455.02 347.31 451.75 337.72 448.39 329.19 443.26 322.7 436.63 317.48 429.93 315.05 421.8 316.15 412.52 319 403.23 324.88 393.71 332.75 384.43 341.19 375.16 350.81 366.1 360.79 357.74 370.57 349.38 380.59 341.74 390.45 335.33 400.15 329.02 409.96 324.07 419.5 321.03" stroke-dasharray="0 0" transform="rotate(80.80000000000001, 400, 400)" opacity="0.24"></path><path d="M413.96 331.79C432.19 331.07 441.92 345.55 438.84 354.47 436.81 360.74 434.07 367.69 431.03 375 429.62 382.3 428.44 389.28 427.38 395.69 427.25 405.16 423.06 421.55 417.46 428.29 413.16 432.83 407.17 436.66 399.58 439.42 392 442.44 383.62 444 375.03 444.17 366.54 444.39 357.98 443.1 350.02 440.4 342.46 437.65 335.89 433.47 331.06 428.04 327.18 422.58 325.52 415.9 326.6 408.21 328.93 400.52 333.66 392.58 340.04 384.81 346.95 377.05 354.97 369.46 363.43 362.45 371.91 355.46 380.66 349.07 389.21 343.73 397.72 338.48 406.12 334.35 413.96 331.79" stroke-dasharray="0 0" transform="rotate(84.84, 400, 400)" opacity="0.20"></path><path d="M406.44 342.55C418.78 338.88 426.01 340.96 427.41 347.13 428.85 353.67 426.03 363.78 420.59 375.49 419.2 387.19 416.96 398.31 413.08 407.23 410.38 416.62 403.18 424.46 391.28 428.65 379.38 433.52 365.42 433.45 353.34 429.1 342.59 424.71 335.92 415.83 337.04 403.61 341.44 391.39 352.45 378.3 365.69 367.05 379.4 355.92 394.1 346.82 406.44 342.55" stroke-dasharray="0 0" transform="rotate(88.88, 400, 400)" opacity="0.16"></path><path d="M398 353.32C409.7 351.11 414.48 364.39 410.14 376.86 408.73 385.65 406 394.28 402.05 401.34 398.94 408.65 392.99 414.72 384.22 417.89 375.45 421.44 365.68 421.24 357.63 417.91 350.44 414.59 346.28 407.98 347.48 398.89 350.6 389.79 358.39 380 367.96 371.61 378.01 363.31 388.93 356.53 398 353.32" stroke-dasharray="0 0" transform="rotate(92.92, 400, 400)" opacity="0.13"></path><path d="M389.84 364.08C401.7 360.27 404.88 367.28 399.7 379.06 398.38 390.83 390.95 403.06 379.4 407.13 367.84 411.85 356.74 406.24 357.93 394.2 362.59 382.14 377.98 368.5 389.84 364.08" stroke-dasharray="0 0" transform="rotate(96.96, 400, 400)" opacity="0.09"></path></g></svg>