<svg xmlns="http://www.w3.org/2000/svg" version="1.1" xmlns:xlink="http://www.w3.org/1999/xlink" xmlns:svgjs="http://svgjs.dev/svgjs" viewBox="0 0 800 800"><defs><linearGradient x1="50%" y1="0%" x2="50%" y2="100%" id="ccchaos-grad"><stop stop-color="hsl(105, 69%, 40%)" stop-opacity="1" offset="0%"></stop><stop stop-color="hsl(105, 69%, 60%)" stop-opacity="1" offset="100%"></stop></linearGradient></defs><g stroke-width="2" stroke="url(#ccchaos-grad)" fill="none" stroke-linecap="round"><path d="M380.7 99.72C390.12 99.96 399.54 101.19 408.94 103.35 418.36 105.94 427.79 109.35 437.22 113.48 446.7 117.84 456.21 122.75 465.76 128.12 475.4 133.48 485.11 139.14 494.9 145.02 504.81 150.69 514.83 156.48 524.94 162.32 535.2 167.84 545.56 173.39 555.99 178.94 566.53 184.13 577.11 189.35 587.66 194.6 598.22 199.54 608.64 204.57 618.83 209.73 628.84 214.64 638.46 219.75 647.53 225.08 656.2 230.25 664.12 235.71 671.15 241.47 677.53 247.16 682.85 253.19 686.97 259.56 690.29 265.91 692.34 272.64 693.07 279.72 693.04 286.8 691.77 294.25 689.34 302.05 686.42 309.85 682.6 317.99 678.06 326.44 673.54 334.89 668.69 343.65 663.73 352.7 659.41 361.74 655.38 371.06 651.84 380.64 649.43 390.23 647.78 399.86 646.89 409.53 647.2 419.2 648.15 428.93 649.63 438.71 652 448.52 654.59 458.41 657.21 468.37 660.24 478.41 662.93 488.55 665.13 498.78 667.24 509.12 668.55 519.57 668.97 530.1 668.93 540.74 667.84 551.44 665.69 562.16 662.93 572.92 659.09 583.62 654.22 594.19 648.77 604.65 642.39 614.84 635.19 624.62 627.52 634.09 619.18 642.98 610.26 651.14 601.06 658.74 591.43 665.42 581.48 671.04 571.4 675.91 561.1 679.59 550.67 682.02 540.21 683.66 529.68 684.06 519.16 683.25 508.66 681.84 498.18 679.44 487.77 676.16 477.39 672.76 467.09 668.86 456.87 664.69 446.69 661.01 436.59 657.49 426.59 654.34 416.61 652.26 406.71 650.86 396.91 650.27 387.11 651.01 377.63 652.55 368.45 654.77 359.26 658.03 350.37 661.64 341.78 665.39 333.15 669.61 324.81 673.52 316.75 676.92 308.64 680.17 300.79 682.53 293.21 683.87 285.56 684.6 278.14 684.1 270.97 682.36 263.68 679.82 256.61 676.02 249.74 671.04 242.73 665.31 235.9 658.53 229.24 650.84 222.42 642.6 215.75 633.64 209.25 624.1 202.57 614.27 196.04 604.04 189.68 593.55 183.17 582.96 176.84 572.25 170.74 561.49 164.52 550.78 158.55 540.08 152.88 529.47 147.17 518.96 141.8 508.53 136.84 498.22 131.92 488.01 127.46 477.9 123.5 467.89 119.68 457.96 116.42 448.09 113.75 438.29 111.29 428.54 109.46 418.83 108.3 409.17 107.37 399.52 107.11 389.89 107.57 380.31 108.23 370.73 109.56 361.41 111.5 352.37 113.59 343.32 116.23 334.56 119.38 326.09 122.58 317.63 126.22 309.48 130.25 301.67 134.24 293.87 138.57 286.41 143.18 279.32 147.67 272.23 152.41 265.5 157.36 259.14 162.13 252.77 167.1 246.74 172.24 241.06 177.18 235.31 182.31 229.87 187.61 224.71 192.72 219.41 198.03 214.33 203.54 209.45 208.9 204.34 214.49 199.35 220.33 194.46 226.06 189.25 232.06 184.08 238.33 178.94 244.55 173.45 251.07 167.95 257.88 162.48 264.66 156.68 271.75 150.93 279.14 145.29 286.53 139.44 294.21 133.79 302.17 128.44 310.14 123.07 318.38 118.15 326.88 113.77 335.37 109.61 344.12 106.16 353.1 103.52 362.07 101.31 371.27 100.02 380.69 99.72" stroke-dasharray="0 0" transform="rotate(0, 400, 400)" opacity="1.00"></path><path d="M383.44 110.31C392.56 110.53 401.71 111.71 410.88 113.77 420.06 116.26 429.29 119.53 438.55 123.5 447.85 127.71 457.21 132.47 466.63 137.68 476.12 142.92 485.69 148.48 495.34 154.26 505.09 159.89 514.93 165.65 524.85 171.49 534.87 177.04 544.95 182.64 555.06 188.25 565.24 193.53 575.38 198.84 585.44 204.18 595.45 209.21 605.26 214.32 614.77 219.52 624.07 224.48 632.93 229.6 641.2 234.9 649.05 240.03 656.16 245.4 662.38 251.03 667.99 256.56 672.57 262.4 676.04 268.54 678.77 274.64 680.34 281.08 680.71 287.85 680.41 294.61 679.01 301.71 676.56 309.14 673.72 316.56 670.08 324.32 665.8 332.4 661.58 340.47 657.07 348.86 652.46 357.55 648.46 366.23 644.71 375.21 641.37 384.48 639.07 393.75 637.43 403.11 636.47 412.52 636.59 421.95 637.29 431.46 638.47 441.04 640.47 450.66 642.69 460.36 644.97 470.15 647.66 480 650.09 489.96 652.11 499.99 654.1 510.09 655.41 520.29 655.95 530.53 656.13 540.82 655.38 551.14 653.67 561.42 651.44 571.67 648.23 581.81 644.06 591.74 639.36 601.52 633.78 610.96 627.4 619.95 620.58 628.59 613.07 636.62 604.98 643.89 596.59 650.62 587.74 656.45 578.52 661.26 569.14 665.38 559.5 668.4 549.67 670.26 539.79 671.42 529.79 671.47 519.74 670.44 509.69 668.93 499.63 666.54 489.6 663.39 479.59 660.19 469.62 656.57 459.72 652.73 449.85 649.38 440.05 646.19 430.33 643.34 420.63 641.47 411.01 640.22 401.49 639.68 391.96 640.37 382.74 641.75 373.82 643.74 364.88 646.71 356.23 649.99 347.87 653.41 339.47 657.3 331.35 660.94 323.49 664.15 315.57 667.28 307.9 669.63 300.49 671.09 292.98 672.05 285.7 671.92 278.64 670.66 271.47 668.7 264.49 665.58 257.7 661.35 250.77 656.44 244.01 650.51 237.41 643.69 230.65 636.33 224.04 628.22 217.59 619.51 210.97 610.47 204.51 600.98 198.22 591.16 191.79 581.2 185.54 571.04 179.52 560.77 173.4 550.49 167.54 540.17 161.97 529.88 156.39 519.65 151.14 509.47 146.29 499.38 141.51 489.37 137.16 479.44 133.32 469.61 129.61 459.84 126.45 450.15 123.87 440.55 121.5 430.99 119.74 421.5 118.64 412.08 117.77 402.68 117.56 393.33 118.03 384.07 118.72 374.8 120.06 365.82 121.99 357.14 124.06 348.46 126.68 340.07 129.8 331.99 132.96 323.91 136.56 316.14 140.54 308.71 144.49 301.28 148.76 294.17 153.32 287.42 157.76 280.64 162.45 274.21 167.35 268.11 172.07 261.97 176.99 256.15 182.08 250.63 186.97 245.02 192.04 239.66 197.28 234.56 202.32 229.29 207.55 224.21 212.97 219.28 218.22 214.12 223.69 209.06 229.38 204.08 234.95 198.79 240.77 193.53 246.85 188.3 252.84 182.74 259.11 177.19 265.65 171.68 272.15 165.88 278.94 160.16 286.02 154.56 293.07 148.79 300.41 143.25 308.02 138.02 315.62 132.8 323.5 128.03 331.65 123.79 339.78 119.79 348.17 116.48 356.81 113.94 365.44 111.83 374.31 110.59 383.43 110.31" stroke-dasharray="0 0" transform="rotate(4.04, 400, 400)" opacity="0.96"></path><path d="M386.87 120.9C395.69 121.11 404.58 122.23 413.51 124.2 422.45 126.57 431.46 129.7 440.51 133.51 449.61 137.56 458.78 142.15 468.01 147.2 477.3 152.3 486.68 157.73 496.12 163.4 505.64 168.95 515.23 174.66 524.86 180.47 534.56 186.04 544.29 191.66 553.99 197.31 563.71 202.66 573.36 208.05 582.85 213.46 592.25 218.59 601.4 223.78 610.2 229.04 618.77 234.06 626.85 239.21 634.32 244.51 641.38 249.64 647.69 254.96 653.15 260.51 658.03 265.94 661.94 271.64 664.81 277.61 667.03 283.52 668.18 289.73 668.24 296.24 667.73 302.73 666.23 309.53 663.8 316.66 661.06 323.76 657.61 331.19 653.6 338.93 649.68 346.67 645.5 354.71 641.23 363.07 637.53 371.42 634.04 380.08 630.91 389.04 628.71 398 627.09 407.07 626.07 416.22 626.02 425.38 626.49 434.64 627.38 443.99 629.05 453.36 630.92 462.83 632.86 472.38 635.22 481.98 637.37 491.66 639.18 501.41 641.03 511.2 642.3 521.05 642.9 530.9 643.23 540.77 642.74 550.61 641.4 560.35 639.63 570.03 636.95 579.53 633.4 588.76 629.39 597.81 624.54 606.47 618.92 614.63 612.9 622.44 606.2 629.61 598.91 636.03 591.33 641.93 583.26 646.95 574.79 651.01 566.14 654.46 557.19 656.87 548.01 658.23 538.75 659 529.33 658.77 519.81 657.57 510.27 656 500.67 653.66 491.07 650.67 481.48 647.68 471.89 644.35 462.36 640.84 452.84 637.81 443.36 634.93 433.96 632.36 424.57 630.7 415.24 629.59 406 629.1 396.75 629.72 387.8 630.96 379.13 632.74 370.44 635.42 362.02 638.39 353.88 641.49 345.7 645.06 337.77 648.42 330.09 651.42 322.35 654.4 314.84 656.72 307.56 658.24 300.2 659.38 293.04 659.54 286.08 658.69 279.01 657.24 272.12 654.73 265.4 651.19 258.55 647.03 251.85 641.91 245.31 635.92 238.62 629.41 232.07 622.16 225.68 614.29 219.14 606.06 212.75 597.34 206.53 588.25 200.2 578.98 194.05 569.44 188.13 559.74 182.13 549.99 176.39 540.14 170.94 530.27 165.49 520.41 160.39 510.57 155.66 500.79 151.02 491.05 146.81 481.38 143.08 471.8 139.51 462.26 136.46 452.8 133.98 443.44 131.7 434.12 130.03 424.87 128.99 415.71 128.17 406.58 128 397.52 128.5 388.56 129.21 379.61 130.54 370.95 132.46 362.61 134.51 354.25 137.1 346.2 140.16 338.47 143.29 330.73 146.84 323.3 150.76 316.2 154.65 309.07 158.86 302.27 163.36 295.79 167.75 289.28 172.38 283.07 177.22 277.18 181.9 271.22 186.77 265.54 191.8 260.13 196.65 254.6 201.67 249.3 206.84 244.21 211.83 238.94 217 233.83 222.33 228.85 227.5 223.63 232.87 218.49 238.44 213.41 243.88 208.05 249.55 202.71 255.44 197.4 261.25 191.8 267.31 186.22 273.63 180.7 279.89 174.92 286.41 169.25 293.21 163.72 299.97 158.06 307 152.64 314.31 147.55 321.59 142.49 329.14 137.88 336.96 133.8 344.76 129.96 352.82 126.79 361.15 124.36 369.46 122.34 378.03 121.17 386.86 120.9" stroke-dasharray="0 0" transform="rotate(8.08, 400, 400)" opacity="0.92"></path><path d="M390.83 131.48C399.37 131.68 407.99 132.74 416.66 134.62 425.35 136.87 434.12 139.86 442.94 143.5 451.8 147.38 460.73 151.8 469.72 156.67 478.77 161.61 487.88 166.89 497.05 172.44 506.26 177.89 515.53 183.52 524.8 189.27 534.11 194.82 543.41 200.45 552.63 206.12 561.83 211.52 570.91 216.97 579.78 222.44 588.54 227.65 597 232.91 605.07 238.24 612.88 243.33 620.18 248.53 626.88 253.86 633.17 259 638.73 264.31 643.46 269.81 647.67 275.19 650.97 280.79 653.31 286.63 655.07 292.39 655.86 298.43 655.67 304.74 655 311.01 653.44 317.57 651.06 324.43 648.43 331.26 645.19 338.41 641.45 345.85 637.82 353.28 633.97 361.02 630.03 369.06 626.61 377.1 623.38 385.45 620.44 394.1 618.35 402.76 616.76 411.53 615.68 420.39 615.49 429.26 615.74 438.24 616.37 447.31 617.72 456.39 619.26 465.57 620.88 474.82 622.91 484.09 624.77 493.44 626.36 502.82 628.04 512.22 629.23 521.63 629.83 531.02 630.26 540.38 629.96 549.66 628.91 558.8 627.52 567.83 625.31 576.64 622.3 585.14 618.89 593.42 614.71 601.28 609.8 608.62 604.52 615.6 598.58 621.94 592.06 627.54 585.26 632.66 577.95 636.94 570.23 640.32 562.32 643.15 554.08 645.04 545.57 645.97 536.96 646.41 528.15 645.96 519.2 644.66 510.22 643.07 501.13 640.81 492.01 638 482.88 635.24 473.72 632.2 464.58 629.01 455.45 626.29 446.34 623.71 437.27 621.41 428.22 619.94 419.21 618.95 410.26 618.51 401.31 619.08 392.63 620.19 384.21 621.77 375.78 624.18 367.59 626.84 359.65 629.63 351.68 632.88 343.94 635.96 336.43 638.74 328.86 641.55 321.5 643.79 314.35 645.35 307.12 646.6 300.07 646.99 293.21 646.48 286.24 645.47 279.43 643.5 272.78 640.58 266.02 637.11 259.39 632.73 252.91 627.53 246.3 621.84 239.82 615.42 233.5 608.37 227.05 600.97 220.75 593.05 214.62 584.71 208.4 576.17 202.37 567.32 196.56 558.26 190.7 549.09 185.1 539.79 179.79 530.42 174.49 521.03 169.53 511.61 164.96 502.21 160.47 492.83 156.4 483.49 152.81 474.22 149.37 464.98 146.44 455.81 144.07 446.73 141.9 437.68 140.31 428.71 139.33 419.85 138.58 411 138.45 402.23 138.97 393.59 139.69 384.94 141.02 376.59 142.9 368.56 144.94 360.52 147.48 352.79 150.49 345.36 153.56 337.92 157.05 330.78 160.89 323.96 164.72 317.1 168.87 310.54 173.29 304.29 177.62 297.99 182.19 291.96 186.96 286.22 191.6 280.39 196.41 274.81 201.39 269.46 206.2 263.99 211.17 258.71 216.28 253.6 221.23 248.31 226.33 243.15 231.59 238.1 236.7 232.82 241.98 227.6 247.44 222.44 252.78 217.01 258.32 211.62 264.07 206.26 269.72 200.63 275.61 195.05 281.73 189.54 287.78 183.81 294.08 178.21 300.63 172.77 307.13 167.24 313.9 161.97 320.93 157.02 327.92 152.14 335.19 147.7 342.71 143.79 350.2 140.12 357.97 137.09 365.99 134.78 374 132.86 382.28 131.74 390.82 131.48" stroke-dasharray="0 0" transform="rotate(12.12, 400, 400)" opacity="0.89"></path><path d="M395.18 142.07C403.44 142.26 411.78 143.26 420.18 145.03 428.59 147.17 437.09 150.01 445.64 153.48 454.22 157.18 462.88 161.42 471.58 166.1 480.32 170.87 489.12 175.98 497.94 181.37 506.79 186.7 515.66 192.23 524.51 197.9 533.36 203.41 542.16 209 550.85 214.66 559.48 220.09 567.95 225.57 576.17 231.08 584.24 236.36 591.99 241.69 599.32 247.07 606.38 252.23 612.93 257.49 618.88 262.84 624.43 268.02 629.29 273.34 633.36 278.82 636.95 284.16 639.7 289.7 641.56 295.46 642.93 301.12 643.42 307.02 643.02 313.17 642.23 319.26 640.65 325.63 638.35 332.27 635.86 338.87 632.83 345.76 629.36 352.94 626.02 360.1 622.48 367.55 618.85 375.31 615.71 383.05 612.72 391.09 609.97 399.44 607.99 407.79 606.43 416.25 605.31 424.8 604.99 433.36 605.05 442.02 605.44 450.76 606.5 459.51 607.72 468.34 609.02 477.22 610.73 486.12 612.32 495.06 613.68 504 615.16 512.93 616.23 521.85 616.8 530.69 617.27 539.48 617.1 548.15 616.28 556.63 615.18 564.98 613.36 573.06 610.81 580.8 607.94 588.3 604.34 595.36 600.07 601.89 595.47 608.06 590.24 613.61 584.44 618.45 578.38 622.84 571.82 626.45 564.83 629.22 557.65 631.51 550.11 632.95 542.28 633.53 534.34 633.7 526.17 633.08 517.82 631.73 509.41 630.16 500.88 628.02 492.26 625.4 483.63 622.88 474.94 620.12 466.23 617.24 457.52 614.82 448.8 612.53 440.1 610.47 431.41 609.19 422.73 608.32 414.1 607.92 405.46 608.44 397.06 609.42 388.9 610.82 380.72 612.97 372.77 615.35 365.04 617.84 357.28 620.78 349.72 623.58 342.38 626.12 334.98 628.75 327.77 630.88 320.74 632.42 313.64 633.75 306.71 634.31 299.94 634.08 293.08 633.44 286.36 631.92 279.79 629.55 273.11 626.7 266.57 623.01 260.16 618.53 253.65 613.62 247.26 607.99 241.02 601.74 234.68 595.15 228.49 588.03 222.48 580.47 216.39 572.68 210.49 564.55 204.82 556.16 199.12 547.65 193.67 538.96 188.51 530.15 183.39 521.29 178.59 512.36 174.18 503.42 169.85 494.47 165.95 485.53 162.5 476.64 159.21 467.76 156.41 458.93 154.15 450.18 152.09 441.45 150.59 432.8 149.69 424.24 148.99 415.7 148.9 407.25 149.43 398.91 150.17 390.57 151.48 382.53 153.34 374.79 155.34 367.05 157.83 359.6 160.77 352.44 163.78 345.27 167.19 338.39 170.96 331.8 174.71 325.17 178.78 318.81 183.12 312.74 187.38 306.6 191.88 300.72 196.58 295.07 201.15 289.35 205.91 283.83 210.82 278.51 215.58 273.06 220.5 267.78 225.56 262.64 230.46 257.32 235.51 252.11 240.7 246.99 245.75 241.65 250.96 236.37 256.33 231.14 261.58 225.67 267.01 220.23 272.64 214.84 278.16 209.23 283.9 203.66 289.84 198.19 295.72 192.55 301.82 187.04 308.16 181.72 314.45 176.34 320.98 171.23 327.76 166.45 334.5 161.76 341.5 157.5 348.74 153.77 355.97 150.27 363.45 147.39 371.19 145.2 378.92 143.37 386.91 142.31 395.17 142.07" stroke-dasharray="0 0" transform="rotate(16.16, 400, 400)" opacity="0.85"></path><path d="M399.73 152.66C407.69 152.83 415.74 153.78 423.85 155.45 431.97 157.47 440.17 160.16 448.42 163.45 456.69 166.97 465.02 171.01 473.38 175.49 481.77 180.07 490.19 185 498.61 190.21 507.05 195.4 515.47 200.8 523.83 206.36 532.17 211.79 540.42 217.33 548.53 222.94 556.55 228.37 564.37 233.85 571.91 239.38 579.3 244.7 586.33 250.08 592.93 255.5 599.27 260.72 605.09 266.02 610.31 271.41 615.18 276.62 619.38 281.96 622.84 287.43 627.01 295.52 630.75 312.45 630.32 321.37 629.45 327.33 627.88 333.53 625.68 339.98 623.34 346.38 620.53 353.05 617.32 359.99 614.27 366.9 611.03 374.1 607.71 381.56 604.83 389.02 602.07 396.77 599.51 404.8 597.63 412.83 596.11 420.97 594.95 429.18 594.52 437.41 594.41 445.71 594.59 454.08 595.37 462.46 596.3 470.89 597.3 479.35 598.7 487.81 600.01 496.29 601.13 504.73 602.4 513.15 603.32 521.5 603.83 529.75 604.28 537.92 604.2 545.94 603.53 553.72 602.66 561.36 601.15 568.7 599 575.66 596.57 582.4 593.49 588.68 589.78 594.42 585.79 599.84 581.21 604.64 576.08 608.77 570.72 612.5 564.86 615.5 558.56 617.73 552.09 619.56 545.25 620.62 538.09 620.91 530.82 620.88 523.29 620.16 515.55 618.79 507.75 617.28 499.79 615.28 491.7 612.87 483.6 610.59 475.4 608.11 467.14 605.54 458.89 603.4 450.59 601.38 442.28 599.56 433.97 598.45 425.66 597.69 417.35 597.33 409.05 597.8 400.95 598.67 393.05 599.89 385.14 601.8 377.43 603.91 369.91 606.11 362.37 608.75 355.01 611.27 347.83 613.57 340.61 616 333.55 618 326.65 619.49 319.7 620.84 312.88 621.52 306.22 621.5 299.48 621.16 292.86 620.03 286.38 618.13 279.82 615.83 273.37 612.75 267.06 608.95 260.66 604.74 254.38 599.87 248.25 594.38 242.04 588.57 235.98 582.23 230.1 575.44 224.17 568.42 218.42 561.03 212.91 553.35 207.38 545.53 202.11 537.48 197.13 529.28 192.19 521.01 187.57 512.64 183.33 504.2 179.19 495.75 175.45 487.27 172.16 478.8 169.03 470.34 166.37 461.91 164.23 453.53 162.28 445.16 160.88 436.86 160.04 428.64 159.41 420.43 159.36 412.3 159.9 404.28 160.64 396.25 161.94 388.51 163.75 381.06 165.71 373.6 168.14 366.41 171.01 359.51 173.95 352.58 177.27 345.92 180.94 339.53 184.62 333.1 188.6 326.91 192.84 320.97 197.02 314.97 201.43 309.19 206.05 303.63 210.56 297.97 215.24 292.49 220.09 287.18 224.8 281.75 229.66 276.44 234.65 271.27 239.5 265.92 244.5 260.66 249.63 255.48 254.62 250.1 259.76 244.77 265.05 239.49 270.22 234 275.57 228.56 281.08 223.17 286.49 217.59 292.09 212.08 297.89 206.68 303.62 201.14 309.55 195.76 315.7 190.58 321.79 185.37 328.12 180.44 334.67 175.85 341.18 171.35 347.94 167.29 354.93 163.73 361.9 160.41 369.12 157.68 376.58 155.61 384.04 153.89 391.75 152.89 399.72 152.66" stroke-dasharray="0 0" transform="rotate(20.200000000000003, 400, 400)" opacity="0.81"></path><path d="M404.28 163.25C411.95 163.4 419.7 164.29 427.49 165.87 435.3 167.77 443.17 170.3 451.08 173.4 459 176.74 466.96 180.57 474.94 184.84 482.93 189.22 490.93 193.95 498.9 198.97 506.87 203.99 514.79 209.23 522.62 214.65 530.42 219.97 538.09 225.42 545.57 230.96 552.97 236.35 560.12 241.81 566.98 247.33 573.67 252.66 580 258.05 585.89 263.49 591.53 268.75 596.66 274.09 601.21 279.49 605.45 284.74 609.04 290.1 611.96 295.56 615.43 303.64 618.22 320.41 617.58 329.18 616.67 335.03 615.15 341.08 613.06 347.36 610.89 353.59 608.29 360.07 605.36 366.78 602.58 373.47 599.62 380.41 596.59 387.6 593.96 394.78 591.42 402.23 589.04 409.94 587.27 417.65 585.78 425.44 584.61 433.3 584.08 441.16 583.82 449.08 583.8 457.04 584.33 465.01 584.99 473 585.72 480.99 586.83 488.97 587.86 496.93 588.73 504.82 589.79 512.68 590.55 520.44 590.96 528.05 591.36 535.58 591.3 542.91 590.74 549.98 590.04 556.9 588.77 563.5 586.93 569.71 584.88 575.7 582.23 581.23 579.01 586.23 573.56 593 559.71 602.92 551.47 605.92 545.67 607.36 539.5 608.11 532.99 608.18 526.38 608 519.49 607.22 512.36 605.88 505.17 604.46 497.78 602.61 490.25 600.42 482.68 598.39 475 596.18 467.22 593.9 459.44 592.04 451.58 590.27 443.68 588.68 435.78 587.72 427.85 587.06 419.89 586.75 411.94 587.17 404.15 587.93 396.53 588.99 388.91 590.67 381.45 592.52 374.16 594.45 366.85 596.79 359.69 599.04 352.69 601.11 345.65 603.32 338.76 605.17 332.01 606.58 325.21 607.91 318.53 608.66 311.99 608.8 305.38 608.68 298.89 607.88 292.53 606.38 286.09 604.55 279.77 602.02 273.57 598.81 267.31 595.25 261.17 591.06 255.17 586.29 249.12 581.22 243.22 575.63 237.49 569.59 231.74 563.33 226.17 556.68 220.83 549.71 215.5 542.6 210.42 535.23 205.63 527.67 200.9 520.03 196.48 512.25 192.43 504.37 188.48 496.46 184.92 488.49 181.8 480.5 178.83 472.5 176.32 464.5 174.31 456.54 172.48 448.57 171.17 440.65 170.4 432.79 169.83 424.94 169.82 417.15 170.37 409.45 171.11 401.75 172.38 394.31 174.15 387.13 176.06 379.94 178.42 373.01 181.2 366.34 184.06 359.64 187.29 353.18 190.86 346.96 194.44 340.7 198.31 334.66 202.45 328.83 206.54 322.95 210.86 317.25 215.37 311.74 219.8 306.13 224.41 300.68 229.17 295.38 233.81 289.95 238.6 284.63 243.53 279.42 248.32 274.05 253.26 268.76 258.32 263.53 263.25 258.13 268.33 252.78 273.54 247.49 278.64 242.01 283.89 236.59 289.3 231.23 294.62 225.72 300.11 220.3 305.77 215 311.36 209.6 317.14 204.37 323.12 199.35 329.04 194.33 335.17 189.59 341.52 185.2 347.82 180.92 354.35 177.06 361.1 173.69 367.83 170.55 374.79 167.97 381.99 166.03 389.17 164.4 396.6 163.46 404.27 163.25" stroke-dasharray="0 0" transform="rotate(24.24, 400, 400)" opacity="0.77"></path><path d="M408.66 173.83C416.03 173.98 423.45 174.81 430.91 176.28 438.37 178.06 445.89 180.44 453.42 183.36 460.96 186.5 468.52 190.12 476.07 194.17 483.63 198.33 491.16 202.85 498.65 207.65 506.11 212.48 513.5 217.54 520.77 222.79 527.99 227.98 535.05 233.3 541.9 238.74 548.65 244.05 555.15 249.45 561.33 254.91 567.34 260.23 572.99 265.6 578.19 271.03 583.17 276.31 587.66 281.65 591.59 287.06 595.24 292.33 598.3 297.68 600.73 303.13 603.59 311.2 605.61 327.82 604.83 336.45 603.91 342.2 602.45 348.13 600.49 354.25 598.49 360.33 596.12 366.61 593.45 373.11 590.93 379.58 588.26 386.27 585.5 393.19 583.11 400.1 580.78 407.24 578.57 414.62 576.9 421.99 575.47 429.42 574.28 436.89 573.67 444.37 573.28 451.88 573.09 459.4 573.39 466.92 573.8 474.44 574.27 481.92 575.1 489.39 575.86 496.8 576.5 504.11 577.33 511.38 577.92 518.52 578.21 525.47 578.52 532.34 578.45 538.98 577.94 545.34 576.8 554.5 571.77 570.6 567.84 577.33 563.1 583.14 550.91 591.43 543.59 593.82 538.42 594.93 532.87 595.44 526.99 595.35 521.01 595.08 514.74 594.28 508.21 593 501.62 591.69 494.81 590.02 487.83 588.06 480.82 586.27 473.65 584.34 466.37 582.34 459.07 580.72 451.67 579.19 444.2 577.81 436.73 577 429.19 576.44 421.6 576.16 414.02 576.54 406.56 577.2 399.25 578.1 391.93 579.57 384.74 581.18 377.69 582.86 370.63 584.92 363.69 586.9 356.89 588.72 350.06 590.71 343.35 592.39 336.76 593.7 330.14 594.97 323.62 595.75 317.22 595.99 310.78 596.05 304.43 595.5 298.21 594.34 291.93 592.9 285.76 590.83 279.71 588.15 273.61 585.18 267.63 581.61 261.8 577.49 255.93 573.12 250.21 568.23 244.67 562.91 239.11 557.37 233.75 551.44 228.61 545.18 223.5 538.78 218.63 532.1 214.05 525.2 209.53 518.21 205.33 511.04 201.48 503.76 197.73 496.42 194.37 488.99 191.42 481.51 188.62 474.02 186.26 466.49 184.38 458.97 182.67 451.44 181.46 443.93 180.76 436.45 180.26 428.98 180.28 421.55 180.83 414.18 181.57 406.82 182.82 399.68 184.53 392.78 186.39 385.87 188.68 379.18 191.36 372.72 194.13 366.24 197.26 359.97 200.71 353.91 204.18 347.81 207.94 341.9 211.95 336.18 215.93 330.39 220.14 324.77 224.55 319.3 228.88 313.75 233.39 308.33 238.06 303.03 242.62 297.61 247.33 292.29 252.18 287.06 256.91 281.68 261.77 276.38 266.75 271.14 271.62 265.75 276.62 260.41 281.75 255.13 286.78 249.7 291.95 244.33 297.26 239.04 302.48 233.64 307.86 228.33 313.39 223.16 318.86 217.93 324.49 212.87 330.31 208.05 336.07 203.23 342.02 198.71 348.17 194.53 354.28 190.47 360.59 186.82 367.1 183.64 373.6 180.68 380.31 178.26 387.23 176.44 394.15 174.91 401.29 174.03 408.65 173.83" stroke-dasharray="0 0" transform="rotate(28.28, 400, 400)" opacity="0.73"></path><path d="M412.68 184.42C419.72 184.55 426.81 185.32 433.91 186.7 441.01 188.35 448.14 190.57 455.27 193.31 462.4 196.25 469.53 199.66 476.63 203.47 483.72 207.41 490.76 211.69 497.72 216.27 504.66 220.89 511.49 225.74 518.17 230.79 524.8 235.81 531.25 240.98 537.47 246.27 543.58 251.47 549.43 256.77 554.95 262.15 560.31 267.41 565.3 272.73 569.87 278.11 574.23 283.37 578.12 288.69 581.5 294.07 585.92 302 591.54 318.11 592.7 326.34 592.94 334.57 590.49 351.61 587.99 360.47 586.17 366.4 584.02 372.5 581.6 378.78 579.34 385.04 576.93 391.49 574.44 398.13 572.28 404.76 570.15 411.59 568.11 418.62 566.54 425.64 565.15 432.7 563.97 439.77 563.29 446.84 562.79 453.91 562.44 460.97 562.54 468.02 562.73 475.03 562.97 481.99 563.53 488.91 564.04 495.76 564.45 502.47 565.06 509.13 565.46 515.64 565.61 521.94 565.76 531.13 564.18 547.91 562.29 555.3 559.78 561.99 552.21 572.72 547.18 576.62 541.49 579.61 527.91 582.51 520.14 582.47 514.75 582.15 509.07 581.38 503.12 580.19 497.12 579.02 490.88 577.53 484.44 575.8 477.97 574.24 471.33 572.57 464.54 570.84 457.74 569.47 450.81 568.16 443.79 566.97 436.75 566.29 429.63 565.82 422.43 565.57 415.22 565.91 408.12 566.47 401.12 567.24 394.12 568.51 387.23 569.89 380.44 571.33 373.65 573.12 366.96 574.85 360.38 576.44 353.77 578.2 347.27 579.7 340.88 580.88 334.45 582.07 328.12 582.83 321.9 583.13 315.64 583.3 309.47 582.94 303.42 582.05 297.32 580.94 291.33 579.26 285.46 577.04 279.55 574.57 273.77 571.55 268.13 568.03 262.47 564.28 256.96 560.05 251.63 555.39 246.3 550.54 241.17 545.31 236.26 539.73 231.38 534.02 226.74 528.02 222.39 521.78 218.11 515.44 214.13 508.91 210.49 502.22 206.96 495.48 203.8 488.62 201.03 481.68 198.41 474.71 196.21 467.68 194.46 460.62 192.88 453.56 191.76 446.48 191.14 439.41 190.69 432.34 190.74 425.28 191.3 418.26 192.03 411.24 193.24 404.41 194.9 397.79 196.69 391.16 198.9 384.72 201.48 378.47 204.15 372.21 207.16 366.12 210.48 360.21 213.83 354.27 217.46 348.49 221.34 342.86 225.2 337.18 229.29 331.63 233.56 326.22 237.79 320.72 242.19 315.34 246.74 310.05 251.21 304.67 255.82 299.36 260.56 294.14 265.21 288.79 269.99 283.51 274.88 278.29 279.67 272.94 284.59 267.64 289.63 262.42 294.58 257.07 299.65 251.79 304.86 246.62 309.98 241.34 315.25 236.19 320.65 231.19 326 226.14 331.49 221.29 337.15 216.67 342.76 212.09 348.53 207.79 354.48 203.83 360.4 200 366.5 196.56 372.78 193.58 379.04 190.81 385.5 188.55 392.15 186.85 398.79 185.43 405.63 184.6 412.67 184.42" stroke-dasharray="0 0" transform="rotate(32.32, 400, 400)" opacity="0.70"></path><path d="M416.18 195.01C422.88 195.13 429.61 195.84 436.33 197.12 443.05 198.65 449.77 200.71 456.48 203.26 463.18 206 469.85 209.19 476.46 212.76 483.06 216.46 489.59 220.5 496.01 224.83 502.4 229.22 508.67 233.84 514.76 238.67 520.8 243.49 526.63 248.47 532.23 253.59 537.72 258.64 542.94 263.8 547.83 269.05 552.57 274.21 556.96 279.45 560.94 284.74 564.73 289.94 568.08 295.2 570.96 300.52 574.7 308.38 579.32 324.33 580.17 332.45 580.25 340.57 577.85 357.28 575.56 365.91 573.93 371.67 572 377.59 569.82 383.64 567.81 389.68 565.65 395.88 563.41 402.23 561.46 408.58 559.53 415.09 557.64 421.75 556.17 428.42 554.84 435.08 553.67 441.73 552.94 448.38 552.34 455 551.86 461.57 551.78 468.14 551.77 474.64 551.79 481.04 552.12 487.42 552.39 493.69 552.59 499.8 553.08 508.8 553.17 525.62 552.55 533.28 551.58 540.44 547.64 552.67 544.6 557.61 536.25 564.65 519.45 569.73 512.49 569.57 505.09 568.89 488.84 565.78 480.09 563.63 474.15 562.31 468.03 560.89 461.74 559.41 455.43 558.26 448.98 557.16 442.4 556.15 435.82 555.59 429.12 555.2 422.32 554.98 415.52 555.28 408.78 555.76 402.13 556.4 395.47 557.49 388.89 558.66 382.39 559.87 375.89 561.41 369.46 562.88 363.13 564.24 356.78 565.78 350.52 567.09 344.34 568.14 338.15 569.21 332.04 569.92 326.02 570.24 319.97 570.48 314.02 570.25 308.17 569.56 302.29 568.71 296.51 567.36 290.85 565.51 285.17 563.48 279.61 560.95 274.2 557.95 268.78 554.76 263.51 551.12 258.41 547.07 253.33 542.86 248.45 538.27 243.78 533.35 239.16 528.3 234.78 522.95 230.67 517.35 226.63 511.66 222.89 505.75 219.47 499.66 216.17 493.53 213.21 487.24 210.63 480.84 208.19 474.42 206.15 467.9 204.54 461.33 203.08 454.75 202.07 448.12 201.51 441.47 201.13 434.82 201.21 428.15 201.77 421.49 202.49 414.83 203.66 408.32 205.26 401.98 206.98 395.64 209.09 389.45 211.56 383.43 214.12 377.38 217 371.49 220.19 365.74 223.41 359.96 226.9 354.31 230.63 348.8 234.35 343.23 238.3 337.77 242.43 332.42 246.52 327 250.79 321.67 255.21 316.43 259.56 311.1 264.06 305.85 268.69 300.66 273.24 295.37 277.91 290.14 282.69 284.98 287.39 279.71 292.21 274.5 297.14 269.37 302 264.14 306.97 259 312.06 253.96 317.07 248.86 322.22 243.89 327.49 239.08 332.7 234.26 338.06 229.63 343.55 225.24 349 220.9 354.6 216.84 360.35 213.12 366.07 209.52 371.95 206.31 377.99 203.53 384.02 200.94 390.21 198.84 396.58 197.26 402.93 195.94 409.47 195.18 416.17 195.01" stroke-dasharray="0 0" transform="rotate(36.36, 400, 400)" opacity="0.66"></path><path d="M419.01 205.6C425.36 205.7 431.7 206.36 438.03 207.54 444.35 208.95 450.65 210.85 456.91 213.21 469.4 218.47 481.66 225.3 493.45 233.35 505.1 241.66 516.11 250.87 526.19 260.7 535.88 270.39 544.4 280.52 551.44 290.93 557.85 301.02 562.57 311.4 565.44 322 567.64 332.31 568.03 342.95 566.66 353.9 565.03 364.68 562.09 375.91 558.11 387.57 556.33 393.38 554.41 399.31 552.4 405.36 550.66 411.41 548.9 417.59 547.17 423.88 545.8 430.17 544.54 436.44 543.38 442.65 542.61 448.86 541.93 455.02 541.35 461.1 541.21 473.23 541.14 484.96 540.91 496.06 541.42 506.94 541.21 516.98 540.05 525.88 538.96 534.34 536.53 541.42 532.71 546.9 528.59 551.77 522.98 554.93 515.98 556.32 508.65 557.28 500.04 556.72 490.33 554.82 480.42 553.17 469.58 550.8 457.99 548.04 452.17 547.1 446.19 546.19 440.07 545.35 433.94 544.9 427.67 544.58 421.29 544.4 414.9 544.66 408.55 545.06 402.26 545.59 395.96 546.5 389.71 547.48 383.53 548.48 371.15 551.34 359 553.79 347.17 555.48 335.29 557.4 323.69 557.94 312.48 556.94 301.21 555.5 290.34 552.26 280.02 547.32 269.72 541.76 260.05 534.59 251.21 526.05 242.57 517.08 234.9 506.97 228.44 496.04 222.41 484.9 217.73 473.13 214.63 460.98 213.3 454.88 212.38 448.72 211.9 442.5 211.57 436.28 211.68 430.02 212.23 423.72 212.94 417.43 214.07 411.26 215.6 405.22 217.24 399.17 219.25 393.25 221.61 387.46 226.54 375.82 232.69 364.63 239.81 353.89 246.95 342.98 254.9 332.38 263.47 322.13 271.85 311.59 280.79 301.26 290.16 291.22 299.26 280.85 308.83 270.76 318.8 261.11 328.52 251.29 338.74 242.08 349.41 233.76 359.93 225.68 371.01 218.8 382.61 213.47 388.39 211.08 394.31 209.13 400.38 207.68 406.44 206.45 412.65 205.75 419 205.6" stroke-dasharray="0 0" transform="rotate(40.400000000000006, 400, 400)" opacity="0.62"></path><path d="M421.05 216.18C433.01 216.6 444.86 219.01 456.46 223.17 468.03 228.01 479.27 234.34 489.98 241.84 500.55 249.63 510.42 258.32 519.35 267.64 527.93 276.91 535.37 286.65 541.43 296.7 546.95 306.52 550.95 316.63 553.28 326.94 555.1 337.03 555.33 347.41 554.03 358.02 552.58 368.5 549.98 379.34 546.46 390.48 543.5 401.59 540.17 413.08 536.71 424.9 534.49 436.72 532.55 448.29 530.9 459.48 530.45 470.62 530.02 481.27 529.43 491.22 529.54 500.98 529.04 509.86 527.73 517.62 525.42 528.05 514.57 541.19 505.8 543.6 499.28 544.41 491.56 543.93 482.8 542.3 473.87 540.98 464 539.04 453.36 536.75 442.67 535.54 431.3 534.51 419.38 533.81 407.46 534.66 395.59 535.83 383.9 537.16 372.21 539.55 360.67 541.57 349.41 542.94 338.12 544.59 327.07 545.07 316.4 544.24 305.71 543.11 295.4 540.42 285.64 536.21 275.93 531.52 266.85 525.35 258.57 517.9 250.51 510.06 243.38 501.12 237.41 491.32 231.84 481.32 227.55 470.64 224.73 459.47 222.46 448.26 221.74 436.67 222.7 424.86 224.21 413.04 227.25 401.56 231.62 390.48 236.3 379.35 242.13 368.55 248.89 358.11 255.71 347.53 263.31 337.2 271.53 327.16 279.61 316.89 288.24 306.82 297.29 297.04 306.13 287.03 315.41 277.32 325.05 268.07 334.5 258.75 344.39 250.06 354.67 242.25 364.83 234.71 375.46 228.33 386.53 223.42 397.55 219.19 409.08 216.7 421.04 216.18" stroke-dasharray="0 0" transform="rotate(44.44, 400, 400)" opacity="0.58"></path><path d="M422.22 226.77C433.41 227.14 444.41 229.33 455.08 233.13 465.72 237.56 475.95 243.38 485.6 250.31 495.11 257.55 503.9 265.67 511.76 274.44 519.32 283.22 525.78 292.49 530.97 302.09 535.72 311.54 539.1 321.29 541 331.23 542.52 341.01 542.66 351.04 541.47 361.25 540.22 371.36 537.97 381.74 534.89 392.34 532.32 402.9 529.38 413.74 526.24 424.76 524.17 435.79 522.25 446.48 520.51 456.7 519.8 466.86 519.06 476.47 518.16 485.34 517.89 494.03 517.11 501.85 515.64 508.59 513.25 517.65 503.24 528.85 495.33 530.86 489.51 531.61 482.59 531.24 474.68 529.91 466.64 528.92 457.69 527.38 447.97 525.52 438.19 524.62 427.72 523.82 416.67 523.22 405.61 523.96 394.53 524.89 383.56 525.9 372.59 527.86 361.73 529.47 351.1 530.52 340.46 531.89 330.05 532.26 319.97 531.51 309.92 530.59 300.24 528.32 291.08 524.71 282.02 520.75 273.56 515.45 265.88 508.96 258.42 502.16 251.86 494.29 246.38 485.55 241.28 476.64 237.38 467 234.85 456.81 232.82 446.57 232.21 435.87 233.17 424.84 234.62 413.81 237.49 402.98 241.61 392.44 246.02 381.86 251.51 371.51 257.89 361.43 264.34 351.25 271.56 341.26 279.38 331.52 287.11 321.61 295.38 311.9 304.06 302.48 312.58 292.9 321.52 283.65 330.79 274.88 339.92 266.11 349.44 257.98 359.28 250.71 369.03 243.74 379.19 237.87 389.69 233.37 400.15 229.5 411.02 227.23 422.22 226.77" stroke-dasharray="0 0" transform="rotate(48.48, 400, 400)" opacity="0.54"></path><path d="M422.47 237.36C432.87 237.68 443 239.66 452.74 243.11 462.44 247.13 471.69 252.43 480.32 258.79 488.83 265.45 496.6 272.97 503.47 281.13 510.09 289.35 515.69 298.08 520.12 307.15 524.21 316.15 527.07 325.45 528.65 334.93 529.95 344.3 530.05 353.9 529 363.63 527.96 373.29 526.04 383.16 523.37 393.15 521.18 403.12 518.6 413.26 515.77 423.48 513.85 433.7 511.97 443.5 510.17 452.77 509.26 462 508.26 470.61 507.08 478.47 506.49 486.19 505.43 493.05 503.8 498.89 501.29 506.76 491.88 516.4 484.7 518.16 479.47 518.9 473.24 518.69 466.11 517.66 458.87 516.98 450.78 515.83 441.93 514.36 433.04 513.74 423.45 513.14 413.26 512.63 403.08 513.26 392.81 513.99 382.6 514.72 372.41 516.28 362.28 517.5 352.33 518.24 342.41 519.31 332.68 519.53 323.27 518.8 313.91 518 304.91 516.04 296.41 512.92 288.03 509.55 280.23 504.99 273.17 499.34 266.34 493.45 260.35 486.55 255.37 478.79 250.75 470.89 247.24 462.24 244.99 453 243.18 443.71 242.69 433.89 243.63 423.67 245.02 413.45 247.72 403.31 251.57 393.35 255.68 383.38 260.82 373.53 266.79 363.9 272.86 354.19 279.67 344.62 287.04 335.28 294.38 325.82 302.24 316.55 310.49 307.58 318.63 298.52 327.18 289.8 336.02 281.58 344.76 273.41 353.85 265.87 363.21 259.17 372.5 252.78 382.13 247.42 392.02 243.34 401.89 239.82 412.07 237.77 422.47 237.36" stroke-dasharray="0 0" transform="rotate(52.52, 400, 400)" opacity="0.51"></path><path d="M421.79 247.95C431.38 248.23 440.64 250 449.46 253.1 458.24 256.71 466.54 261.5 474.2 267.27 481.76 273.33 488.59 280.22 494.57 287.73 500.35 295.35 505.19 303.47 508.97 311.94 512.5 320.39 514.95 329.14 516.27 338.08 517.41 346.96 517.52 356.03 516.63 365.21 515.8 374.34 514.2 383.62 511.93 392.96 510.07 402.29 507.83 411.71 505.3 421.11 503.54 430.51 501.72 439.44 499.89 447.8 498.81 456.12 497.6 463.81 496.21 470.75 494.68 480.58 489.6 495.51 485.49 500.34 480.63 503.93 466.5 506.31 457.26 505.57 450.74 505.19 443.44 504.38 435.42 503.27 427.36 502.89 418.63 502.47 409.31 502.05 400 502.58 390.57 503.12 381.15 503.6 371.76 504.79 362.4 505.67 353.21 506.11 344.04 506.88 335.05 506.94 326.37 506.18 317.75 505.43 309.47 503.69 301.67 500.94 294.01 498.04 286.89 494.09 280.47 489.16 274.28 484.05 268.87 478.01 264.4 471.15 260.25 464.18 257.12 456.46 255.14 448.13 253.56 439.75 253.18 430.81 254.1 421.41 255.42 412 257.93 402.58 261.5 393.27 265.32 383.94 270.08 374.67 275.62 365.56 281.28 356.4 287.63 347.34 294.53 338.49 301.42 329.57 308.82 320.83 316.59 312.39 324.3 303.93 332.38 295.81 340.74 288.18 349.03 280.66 357.62 273.74 366.45 267.64 375.23 261.83 384.27 256.99 393.52 253.32 402.75 250.15 412.2 248.3 421.79 247.95" stroke-dasharray="0 0" transform="rotate(56.56, 400, 400)" opacity="0.47"></path><path d="M420.21 258.53C428.97 258.77 437.35 260.34 445.28 263.1 453.17 266.31 460.55 270.59 467.31 275.77 473.98 281.23 479.96 287.47 485.15 294.3 490.18 301.25 494.35 308.71 497.59 316.52 500.65 324.35 502.77 332.48 503.91 340.79 504.94 349.08 505.09 357.55 504.38 366.09 503.76 374.62 502.46 383.25 500.55 391.89 499.01 400.53 497.08 409.18 494.84 417.76 493.22 426.34 491.48 434.41 489.67 441.9 488.47 449.36 487.1 456.19 485.53 462.3 483.67 470.96 478.21 484.01 474.18 488.25 469.57 491.5 456.63 493.99 448.27 493.64 442.41 493.53 435.83 493.04 428.59 492.25 421.33 492.07 413.43 491.8 404.98 491.46 396.53 491.91 387.94 492.28 379.36 492.54 370.79 493.42 362.25 493.98 353.84 494.14 345.47 494.63 337.27 494.5 329.35 493.68 321.5 492.92 313.98 491.32 306.92 488.87 299.99 486.33 293.58 482.88 287.82 478.56 282.26 474.12 277.44 468.83 273.47 462.78 269.79 456.64 267.03 449.79 265.32 442.31 263.96 434.81 263.68 426.73 264.57 418.15 265.8 409.57 268.13 400.91 271.4 392.28 274.91 383.65 279.29 375.03 284.39 366.51 289.6 357.97 295.47 349.52 301.85 341.24 308.26 332.94 315.14 324.82 322.38 316.99 329.6 309.18 337.16 301.72 344.97 294.75 352.75 287.89 360.79 281.63 369.03 276.13 377.23 270.91 385.65 266.57 394.21 263.31 402.75 260.48 411.46 258.84 420.21 258.53" stroke-dasharray="0 0" transform="rotate(60.599999999999994, 400, 400)" opacity="0.43"></path><path d="M417.8 269.12C425.71 269.32 433.24 270.69 440.29 273.13 447.32 275.94 453.84 279.72 459.77 284.31 465.62 289.16 470.83 294.73 475.31 300.86 479.68 307.13 483.29 313.87 486.07 320.96 488.74 328.1 490.59 335.54 491.61 343.15 492.58 350.77 492.79 358.56 492.26 366.41 491.83 374.26 490.81 382.18 489.24 390.07 487.98 397.97 486.34 405.85 484.37 413.6 482.9 421.34 481.26 428.58 479.49 435.25 477.48 444.92 472.94 460.94 470.12 467.1 463 475.81 446.9 481.88 439.34 481.89 434.06 482.02 428.15 481.8 421.65 481.29 415.13 481.29 408.04 481.15 400.44 480.87 392.83 481.24 385.1 481.47 377.36 481.55 369.64 482.14 361.93 482.43 354.35 482.35 346.81 482.57 339.42 482.26 332.3 481.36 325.26 480.56 318.52 479.04 312.22 476.81 306.04 474.54 300.33 471.49 295.23 467.68 290.32 463.81 286.07 459.17 282.6 453.84 279.38 448.45 276.99 442.39 275.53 435.73 274.37 429.05 274.18 421.8 275.03 414.05 276.19 406.29 278.31 398.41 281.29 390.52 284.48 382.63 288.46 374.71 293.09 366.87 297.85 359.03 303.2 351.25 309.04 343.63 314.92 336.02 321.25 328.58 327.91 321.44 334.57 314.34 341.55 307.58 348.77 301.3 355.96 295.14 363.4 289.55 370.98 284.65 378.56 280.02 386.3 276.19 394.13 273.32 401.96 270.83 409.88 269.39 417.8 269.12" stroke-dasharray="0 0" transform="rotate(64.64, 400, 400)" opacity="0.39"></path><path d="M414.65 279.71C421.72 279.87 428.4 281.06 434.62 283.17 440.82 285.6 446.53 288.89 451.68 292.91 456.79 297.15 461.3 302.05 465.17 307.46 468.96 313.01 472.08 319.01 474.5 325.35 476.84 331.74 478.48 338.43 479.42 345.28 480.35 352.16 480.63 359.2 480.28 366.3 480.03 373.4 479.26 380.56 478 387.67 476.99 394.79 475.62 401.87 473.9 408.79 472.59 415.71 471.05 422.15 469.35 428.05 467.28 436.59 462.48 450.67 459.55 456.1 452.49 463.96 437.45 469.98 430.61 470.32 423.22 470.66 405.8 470.52 395.88 470.28 389.11 470.58 382.23 470.7 375.34 470.63 368.47 470.98 361.61 471.03 354.87 470.74 348.18 470.72 341.63 470.23 335.33 469.25 326.13 467.66 309.7 461.43 302.76 456.69 296.63 451.25 288 437.13 285.77 428.58 284.8 422.67 284.69 416.23 285.5 409.3 286.56 402.37 288.48 395.29 291.16 388.17 294.02 381.06 297.59 373.9 301.75 366.8 306.02 359.7 310.85 352.66 316.11 345.78 321.43 338.92 327.16 332.23 333.2 325.82 339.26 319.48 345.61 313.46 352.17 307.88 358.74 302.44 365.51 297.51 372.4 293.23 379.29 289.17 386.31 285.83 393.38 283.35 400.45 281.18 407.57 279.93 414.65 279.71" stroke-dasharray="0 0" transform="rotate(68.68, 400, 400)" opacity="0.35"></path><path d="M410.89 290.3C423.35 290.85 434.27 294.88 443.22 301.57 452.02 309.05 458.7 318.74 462.95 329.75 467.06 341.04 468.89 353.37 468.44 365.93 468.39 378.57 466.68 391.36 463.44 403.58 461.43 415.79 458.44 426.19 454.69 434.46 451.93 442.67 447.9 448.74 442.55 452.55 437.54 456.51 430.75 458.59 422.24 458.94 413.74 460.19 403.39 460.42 391.49 459.7 379.58 460.57 367.35 460.46 355.55 459.32 343.89 459.06 332.85 457.03 323.19 453.11 313.92 449.32 306.31 443.25 301.09 435.04 296.56 426.75 294.66 416.34 295.97 404.11 298.08 391.89 303.13 379.09 310.37 366.45 318.02 353.87 327.58 341.53 338.31 330.21 349.15 319.16 361.05 309.42 373.35 301.87 385.69 295.09 398.42 290.96 410.89 290.3" stroke-dasharray="0 0" transform="rotate(72.72, 400, 400)" opacity="0.32"></path><path d="M406.68 300.88C417.48 301.31 426.86 304.68 434.51 310.32 442.06 316.6 447.8 324.83 451.5 334.26 455.15 343.96 456.92 354.6 456.76 365.5 456.96 376.48 455.68 387.6 452.97 398.2 451.18 408.8 448.37 417.82 444.78 425.02 441.95 432.19 437.98 437.6 432.92 441.14 428.16 444.87 421.95 447.05 414.37 447.76 406.81 449.19 397.76 449.65 387.45 449.11 377.14 449.78 366.61 449.43 356.51 448.09 346.53 447.47 337.14 445.35 328.98 441.66 321.15 438.15 314.78 432.75 310.47 425.58 306.71 418.37 305.2 409.35 306.43 398.74 308.31 388.13 312.69 377 318.97 366.01 325.61 355.1 333.92 344.43 343.28 334.69 352.77 325.23 363.2 316.94 373.96 310.59 384.77 304.87 395.88 301.41 406.68 300.88" stroke-dasharray="0 0" transform="rotate(76.76, 400, 400)" opacity="0.28"></path><path d="M402.2 311.47C411.36 311.79 419.28 314.53 425.73 319.17 432.13 324.3 437.02 331.1 440.24 338.95 443.46 347.03 445.15 355.98 445.25 365.18 445.63 374.46 444.73 383.89 442.5 392.91 440.95 401.92 438.38 409.62 435.05 415.83 430.38 424.44 416.57 434.7 407.11 436.77 400.49 438.29 392.69 438.91 383.93 438.52 375.17 439.01 366.31 438.5 357.87 437.06 349.53 436.17 341.75 434.02 335.05 430.59 328.6 427.33 323.41 422.56 319.96 416.36 316.92 410.15 315.77 402.45 316.9 393.43 318.52 384.4 322.25 374.96 327.57 365.66 333.18 356.44 340.23 347.47 348.18 339.35 356.27 331.46 365.17 324.61 374.34 319.4 383.57 314.69 393.03 311.87 402.2 311.47" stroke-dasharray="0 0" transform="rotate(80.80000000000001, 400, 400)" opacity="0.24"></path><path d="M397.62 322.06C405.17 322.28 411.7 324.43 417.03 328.12 422.34 332.17 426.44 337.59 429.22 343.9 432.03 350.41 433.61 357.65 433.89 365.16 434.4 372.74 433.8 380.48 432.04 387.94 430.72 395.39 428.46 401.83 425.48 407.09 421.14 414.46 408.73 423.8 400.55 425.99 394.88 427.5 388.33 428.19 381.08 427.93 373.82 428.28 366.59 427.67 359.77 426.23 353.01 425.18 346.77 423.07 341.45 419.95 334.27 414.91 326.78 399.09 327.37 388.42 328.73 380.95 331.79 373.2 336.16 365.6 340.75 358.07 346.54 350.8 353.08 344.26 359.73 337.91 367.07 332.44 374.64 328.33 382.26 324.58 390.07 322.35 397.62 322.06" stroke-dasharray="0 0" transform="rotate(84.84, 400, 400)" opacity="0.20"></path><path d="M393.14 332.65C405.1 333.25 413.89 339.66 418.51 349.2 423.31 359.27 424.53 371.68 421.57 383.53 419.74 395.38 414.47 404.31 407.14 409.5 400.31 415.16 390.54 418.03 379 417.35 367.46 418.17 356.4 415.41 348.23 409.83 340.52 404.7 336.35 395.8 337.83 383.94 340.23 372.08 347.85 359.63 358.03 349.49 368.55 339.88 381.19 333.37 393.14 332.65" stroke-dasharray="0 0" transform="rotate(88.88, 400, 400)" opacity="0.16"></path><path d="M388.95 343.23C397.82 343.57 404.48 348.07 408.17 354.9 411.99 362.05 413.17 371.05 411.1 379.89 409.65 388.72 405.41 395.67 399.58 399.99 394.03 404.61 386.43 407.13 377.8 406.76 369.17 407.23 361.16 404.8 355.42 400.24 349.93 395.98 347.06 389.05 348.3 380.21 350.07 371.37 355.64 362.34 363.1 355.13 370.78 348.25 380.08 343.66 388.95 343.23" stroke-dasharray="0 0" transform="rotate(92.92, 400, 400)" opacity="0.13"></path><path d="M385.21 353.82C396.93 354.44 403.46 365.43 400.63 377.17 398.89 388.91 389.01 396.83 377.51 396.17 366.01 396.97 357.2 389.14 358.77 377.4 361.31 365.65 373.48 354.57 385.21 353.82" stroke-dasharray="0 0" transform="rotate(96.96, 400, 400)" opacity="0.09"></path></g></svg>