<svg width="633" height="713" viewBox="0 0 633 713" fill="none" xmlns="http://www.w3.org/2000/svg">
<g clip-path="url(#clip0_269_218)">
<path fill-rule="evenodd" clip-rule="evenodd" d="M497 578.6C493.1 618.2 421.5 645.2 326 647.5C325.9 647.5 325.7 647.5 325.6 647.5C302.8 648 278.6 647.2 253.6 644.8C202.8 639.9 156.4 629.2 119 615C103.8 609.3 90.2 603 78.3 596.3C44.7 577.3 25.5 555.1 27.6 533C32 487.9 124.2 459.2 239.6 464.6C249.9 465.1 260.4 465.8 271 466.9C322.8 471.9 370.1 483 407.8 497.5C464.5 519.2 499.9 549 497 578.6Z" fill="#162031" stroke="#162031" stroke-width="2.13" stroke-linecap="round" stroke-linejoin="round"/>
<path d="M520.1 547.9C532.3 562.9 533.5 576 532.8 592.8C530.5 646.8 457.2 658.5 416.3 670.6" stroke="#162031" stroke-width="2.13" stroke-linecap="round" stroke-linejoin="round"/>
<path d="M112 444.5C53 454.4 -17.9 493.1 3.60001 563.5" stroke="#162031" stroke-width="2.13" stroke-linecap="round" stroke-linejoin="round"/>
<path d="M373.9 593.7C377 589.4 376.5 592.2 372.9 593C360 595.9 347.1 599.3 334.3 602.7C318.1 607 304.3 617.5 289.4 625.1" stroke="#162031" stroke-width="2.13" stroke-linecap="round" stroke-linejoin="round"/>
<path fill-rule="evenodd" clip-rule="evenodd" d="M453.1 442.3C512.5 379 359.5 81.9 264.7 139.1C231.9 154.4 218.5 180.3 205.4 210.8C173.6 327.5 34.2 288.5 30 414.5C22.1 598.4 389.5 577.6 453.1 442.3Z" fill="#33D985"/>
<path fill-rule="evenodd" clip-rule="evenodd" d="M109.5 226.7C131.3 223.2 152.1 221 146.1 252C145.3 256.2 139.3 282.4 118.2 285.3C75.4001 292.2 66.5001 232.6 109.5 226.7Z" fill="#33D985"/>
<path fill-rule="evenodd" clip-rule="evenodd" d="M174.1 219.9C164.9 226.4 147.4 217.4 153.2 205.3C157.7 180 207.3 208.5 174.1 219.9Z" fill="#33D985"/>
<path d="M182.6 363.8C185.7 371.1 188.9 379.1 186.9 386.8C185.3 393.2 180.4 398.3 175.5 402.7C173 404.9 170.4 407.2 167.2 408.1C164 409.1 160.1 408.5 158 405.9C155.7 403.1 156.3 398.8 158 395.6C159.3 393.1 161.5 390.9 164.2 390.1C168.9 388.7 173.9 392.2 175.8 396.7C177.7 401.2 177.2 406.3 176.2 411.1C172.1 430.7 161 447.9 150.1 464.7" stroke="#162031" stroke-width="2.13" stroke-linecap="round" stroke-linejoin="round"/>
<path fill-rule="evenodd" clip-rule="evenodd" d="M125.5 341.1C137.1 342.5 151.7 323.4 134.6 321.5C129.3 323.4 118.4 338.7 123.7 340.7" fill="#FAF6EB"/>
<path fill-rule="evenodd" clip-rule="evenodd" d="M240.3 212.3C227.8 214.9 222.8 226.2 228.9 238C230.6 241.3 240.6 255.7 249.6 254.1C253.9 253.3 267.6 255.2 264.9 222.5C263.2 209.7 257 208.9 240.3 212.3Z" fill="#D7D7D7" stroke="#162031" stroke-width="2.13" stroke-linecap="round" stroke-linejoin="round"/>
<path fill-rule="evenodd" clip-rule="evenodd" d="M429.7 401.7C414.6 452.3 338.6 568.7 333.2 588L332.4 584.7C315.3 590.7 217.2 591.6 185.1 560.7C181.9 557.6 179.4 554.3 177.6 550.5L204.2 484.3C202.6 486.6 186.9 472.7 205.2 434.3C210.2 423.8 220.6 395.4 220.6 395.4C221.4 391.1 223.7 374.4 226.5 354C226.1 353.3 226 352.9 226 352.9C217.2 346.9 184.2 349.3 176.7 323.5C175.6 319.6 175 315 175.2 309.6C175.4 303.6 179.1 300.8 183.3 299.6C187.4 298.4 192 298.6 194.3 298.8C206.7 299.5 218.8 304.1 230.3 308.9C231.1 309.2 231.8 309.6 232.6 309.9C236.5 281.8 240.2 257.4 241.4 256.1C243.4 253.9 245.3 251.7 247.2 249.6C253.2 243 259.3 238 269.6 241.8C276.3 244.2 282.8 246.8 289 249.8C302.1 256.1 314 264.1 323.5 276C332.9 287.7 341.4 300.3 347.8 313.8C353.6 326 357.4 339.3 359.8 352.5C361.5 361.5 362.7 370.9 362.1 380.1C362 382.4 361.7 384.6 361.3 386.9C359.5 397 357 406.9 354.2 416.7L429.7 401.7Z" fill="#D7D7D7" stroke="#162031" stroke-width="2.13" stroke-linecap="round" stroke-linejoin="round"/>
<path fill-rule="evenodd" clip-rule="evenodd" d="M185.1 560.7C181.9 557.6 179.4 554.3 177.6 550.5L204.2 484.3C202.6 486.6 186.9 472.7 205.2 434.3C210.2 423.8 220.6 395.4 220.6 395.4C221.4 391.1 223.7 374.4 226.5 354C226.1 353.3 226 352.9 226 352.9C217.2 346.9 184.2 349.3 176.7 323.5C184 324.8 191.8 327.2 200.1 329.7C216.7 334.7 226.7 337.7 232 347C238.2 357.8 230.5 363.8 235.6 389.3C237.1 397 238.6 400.2 240.5 411.5C242.7 424.5 243.7 431.1 241.8 436C237 448.1 222.9 449.3 223.1 456.9C223.2 461.4 228.2 463.2 233.3 468C233.3 468 246.9 480.6 248 503.5C249.4 532.4 211.2 565.8 185.1 560.7Z" fill="#FAF6EB"/>
<path fill-rule="evenodd" clip-rule="evenodd" d="M362.2 380.2C355.7 385.7 348.6 390 340.9 392.4C320 399 298.4 390.7 279.9 383.5C265.3 377.8 247.7 371.1 243.2 356.2C240.7 347.9 243.9 342.7 239.1 336.6C233.6 329.8 226.3 332.4 213.3 326.8C200.5 321.3 193 312.4 190.2 309C188 306.4 185.6 303.1 183.4 299.5C187.5 298.3 192.1 298.5 194.4 298.7C206.8 299.4 218.9 304 230.4 308.8C231.2 309.1 231.9 309.5 232.7 309.8C236.6 281.7 240.3 257.3 241.5 256C243.5 253.8 245.4 251.6 247.3 249.5C260.7 248.6 275 248.7 289.2 249.7C302.3 256 314.2 264 323.7 275.9C333.1 287.6 341.6 300.2 348 313.7C353.8 325.9 357.6 339.2 360 352.4C361.6 361.6 362.9 371 362.2 380.2Z" fill="#162031" stroke="#162031" stroke-width="2.13" stroke-linecap="round" stroke-linejoin="round"/>
<path fill-rule="evenodd" clip-rule="evenodd" d="M204.6 558.7C208.7 555 212.7 551.1 216.4 547C185.3 528.2 185 513 185 513L119 614.9C151.2 627.1 190.1 636.7 232.6 642.3C225.7 624.3 215.1 607.2 201.6 592.7C193.6 582.7 196.6 566.7 204.6 558.7Z" fill="#FAF6EB"/>
<path fill-rule="evenodd" clip-rule="evenodd" d="M245.9 561.6C233.8 556.6 224.2 551.7 216.4 547C212.8 551.1 208.8 555 204.6 558.7C196.6 566.7 193.6 582.7 201.6 592.7C215.2 607.2 225.8 624.3 232.6 642.3C239.5 643.2 246.5 644 253.6 644.7C278.5 647.1 302.7 648 325.6 647.4C325.7 647.4 325.9 647.4 326 647.4L354.1 568.7C354.1 568.8 318 591.4 245.9 561.6Z" fill="#B8B8B8"/>
<path fill-rule="evenodd" clip-rule="evenodd" d="M367.4 346C370.2 338.5 366.2 326.7 364 319.2C351.7 278 316.9 257.3 282 237.1C269.9 230.1 263.1 228.9 252.2 248.7C246.4 259.2 242.6 285 250.5 292.2C274 313.3 303.1 329.9 319.1 356.5C321.5 360.5 333.7 396.5 333.7 396.5C333.7 396.5 341.5 387.4 351.1 379.1C359.1 372.1 361.4 371.6 362.6 369.9L367.4 346Z" fill="#F7AA9A"/>
<path d="M474.3 189.8C471.4 188.3 470.2 184.8 471.7 181.8L471.9 181.5C473.4 178.6 476.9 177.4 479.9 178.9C482.8 180.4 484 183.9 482.5 186.9L482.3 187.2C480.7 190.2 477.2 191.3 474.3 189.8ZM478.7 181.3C477.1 180.5 475.2 181.1 474.3 182.7L474.1 183C473.3 184.6 473.9 186.5 475.5 187.4C477.1 188.2 479 187.6 479.9 186L480.1 185.7C480.9 184 480.3 182.1 478.7 181.3Z" fill="#162031" stroke="#162031" stroke-width="2.13" stroke-linecap="round" stroke-linejoin="round"/>
<path d="M468 202.1C465.1 200.6 463.9 197.1 465.4 194.1L465.6 193.8C467.1 190.9 470.6 189.7 473.6 191.2C476.6 192.7 477.7 196.2 476.2 199.2L476 199.5C474.4 202.5 470.9 203.6 468 202.1ZM472.3 193.6C470.7 192.8 468.8 193.4 467.9 195L467.7 195.3C466.9 196.9 467.5 198.8 469.1 199.7C470.7 200.6 472.6 199.9 473.5 198.3L473.7 198C474.6 196.3 474 194.4 472.3 193.6Z" fill="#162031" stroke="#162031" stroke-width="2.13" stroke-linecap="round" stroke-linejoin="round"/>
<path d="M478.9 174.8C474.6 172.6 473 167.3 475.1 163.1L482.4 149C484.6 144.7 489.8 143.1 494.1 145.2C498.4 147.4 500 152.7 497.9 156.9L490.6 171C488.4 175.3 483.1 177 478.9 174.8ZM492.9 147.6C489.9 146.1 486.3 147.2 484.8 150.2L477.5 164.3C476 167.3 477.1 170.9 480.1 172.4C483.1 173.9 486.7 172.8 488.2 169.8L495.5 155.7C497 152.7 495.9 149.1 492.9 147.6Z" fill="#162031" stroke="#162031" stroke-width="2.13" stroke-linecap="round" stroke-linejoin="round"/>
<path fill-rule="evenodd" clip-rule="evenodd" d="M529.2 90.8999L380 380.6C375.5 389.4 364.7 392.8 355.9 388.3L225.4 321.1C216.6 316.6 213.2 305.8 217.7 297L302.3 132.6C305.3 132.4 308.3 132.2 311.4 132L225 299.9C222.4 305 224.4 311.3 229.5 314L359 380.6C360.5 381.4 362.1 381.8 363.8 381.8C367.7 381.8 371.3 379.6 373.1 376.1L521.7 87.5C522.2 86.5 522.5 85.5 522.7 84.5C522.8 84.5 522.9 84.3999 523 84.3999C525.8 83.1999 528.5 81.9 531.2 80.7C531.5 84 530.9 87.5999 529.2 90.8999Z" fill="#162031" stroke="#162031" stroke-width="2.13" stroke-linecap="round" stroke-linejoin="round"/>
<path fill-rule="evenodd" clip-rule="evenodd" d="M522.6 84.4999C522.4 85.4999 522.1 86.4999 521.6 87.4999L373.1 376.1C371.3 379.6 367.7 381.8 363.8 381.8C362.1 381.8 360.5 381.4 359 380.6L229.5 314C224.4 311.4 222.4 305.1 225 299.9L311.4 132.1C331.5 130.7 353.4 128.2 376.3 124.5C433.7 115.1 486 100.4 522.6 84.4999Z" fill="#FAF6EB"/>
<path fill-rule="evenodd" clip-rule="evenodd" d="M439.7 26.4C439.7 26.4 436.9 31.9 436.7 36.5C436.7 36.8 436.7 37 436.7 37.3C436.8 41.5 439.4 45.2 443.1 47.1L452.7 52C455.4 53.4 458.5 53.7 461.3 52.8C462.5 52.4 463.7 51.9 464.8 51.2C468.7 48.6 471.3 43.2 471.3 43.2L439.7 26.4Z" fill="#162031" stroke="#162031" stroke-width="2.13" stroke-linecap="round" stroke-linejoin="round"/>
<path fill-rule="evenodd" clip-rule="evenodd" d="M448.5 331.2C449.5 336.6 438.9 384.6 425.3 414.3L275.6 442.7C275.6 442.7 279.5 428 287.6 411.7C294.8 397.2 305.2 381.5 319.1 373.7C360.1 350.7 391.4 361.6 391.4 361.6C391.4 361.6 393.4 343.8 406.1 321.2C406.1 321.2 406.2 317.4 406.8 311.7C408 300.3 411.2 281.7 419.7 273.2C437.9 255 452.3 258.6 451.3 261.4C452.1 265.2 449.4 328.5 448.5 331.2Z" fill="#D7D7D7" stroke="#162031" stroke-width="2.13" stroke-linecap="round" stroke-linejoin="round"/>
<path fill-rule="evenodd" clip-rule="evenodd" d="M216.5 238.9C203.8 241.6 198.7 253 204.9 265.1C206.6 268.4 216.8 283.2 226 281.5C230.3 280.7 244.3 282.6 241.6 249.3C239.8 236.3 233.4 235.4 216.5 238.9Z" fill="#D7D7D7" stroke="#162031" stroke-width="2.13" stroke-linecap="round" stroke-linejoin="round"/>
<path d="M325.6 647.5C302.8 648 278.6 647.2 253.6 644.8C202.8 639.9 156.4 629.2 119 615" stroke="#162031" stroke-width="2.13" stroke-linecap="round" stroke-linejoin="round"/>
<path d="M187.3 520C187.3 520 191.8 534.5 216.4 547C241 559.5 266.5 576.4 302.4 576.4" stroke="#162031" stroke-width="2.13" stroke-linecap="round" stroke-linejoin="round"/>
<path d="M437.6 264.8C437.6 264.8 433.9 287.4 437.6 291C441.3 294.7 446.7 294.7 446.7 294.7" stroke="#162031" stroke-width="2.13" stroke-linecap="round" stroke-linejoin="round"/>
<path fill-rule="evenodd" clip-rule="evenodd" d="M392.5 378.8C377.7 385.8 370.2 374.1 351.1 379.1C327.6 385.4 325.6 406.8 305.4 411.9C300.7 413.1 294.8 413.5 287.5 411.7C294.7 397.2 305.1 381.5 319 373.7C360 350.7 391.3 361.6 391.3 361.6C391.3 361.6 393.3 343.8 406 321.2C406 321.2 406.1 317.4 406.7 311.7C411.1 318 414.2 325.2 415.1 333C417 350.7 407.8 371.5 392.5 378.8Z" fill="#FAF6EB"/>
<path fill-rule="evenodd" clip-rule="evenodd" d="M262.5 454.8C261.2 446.8 278.7 437.7 293.4 430.1C325.9 413.3 361 407.3 365.8 406.5C385.7 403.3 398.9 403.5 411.1 392.3C418.5 385.6 427 372.9 429.6 373.8C433.8 375.3 431 402.4 422.9 419.6C404.3 459.3 344.6 466.2 333.8 467.5C302.6 471.4 264.3 466.1 262.5 454.8Z" fill="#B8B8B8"/>
<path d="M505.1 224.7L474.9 244.8" stroke="#162031" stroke-width="2.13" stroke-linecap="round" stroke-linejoin="round"/>
<path d="M506.9 256.1L475.5 259.7" stroke="#162031" stroke-width="2.13" stroke-linecap="round" stroke-linejoin="round"/>
<path d="M473.1 275.1L502.1 306.5" stroke="#162031" stroke-width="2.13" stroke-linecap="round" stroke-linejoin="round"/>
<path d="M474.3 307.1L488.5 324.3" stroke="#162031" stroke-width="2.13" stroke-linecap="round" stroke-linejoin="round"/>
<path d="M188.3 569.4C184.7 577.8 182.3 587.4 185.4 595.9C187.7 602.4 192.9 607.4 197.3 612.8C201.7 618.2 205.5 624.8 204.4 631.7" stroke="#162031" stroke-width="2.13" stroke-linecap="round" stroke-linejoin="round"/>
<path d="M204.1 608.4C207 614.4 213.2 618.2 215.9 624.2C217.2 627.1 217.6 630.4 217.6 633.6" stroke="#162031" stroke-width="2.13" stroke-linecap="round" stroke-linejoin="round"/>
<path d="M235.8 498.5C235.8 503.1 235.8 507.8 235 512.4C234.2 517 232.5 521.5 229.4 524.9C226.1 528.6 221.5 530.9 217.1 533.1" stroke="#162031" stroke-width="2.13" stroke-linecap="round" stroke-linejoin="round"/>
<path d="M239.4 521.3C238.1 525.3 235.4 528.9 231.9 531.3" stroke="#162031" stroke-width="2.13" stroke-linecap="round" stroke-linejoin="round"/>
<path d="M213.2 266.2C212.7 261.8 212.2 257.2 213.9 253.2C215.6 249.2 220.4 246 224.5 247.8" stroke="#162031" stroke-width="2.13" stroke-linecap="round" stroke-linejoin="round"/>
<path d="M410.7 401C389.6 436.1 369.6 472 350.8 508.4" stroke="#162031" stroke-width="2.13" stroke-linecap="round" stroke-linejoin="round"/>
<path d="M382.7 471.5L342.7 548.4" stroke="#162031" stroke-width="2.13" stroke-linecap="round" stroke-linejoin="round"/>
<path d="M432.5 351C426.2 377.9 427.9 396.6 404.2 433.9" stroke="#162031" stroke-width="2.13" stroke-linecap="round" stroke-linejoin="round"/>
<path fill-rule="evenodd" clip-rule="evenodd" d="M575.5 43.7C574 55.2 557.6 68.1 531.1 80.6C528.5 81.8 525.7 83.1 522.9 84.3C522.8 84.3 522.7 84.4 522.6 84.4C486 100.3 433.6 115.1 376.3 124.4C353.4 128.1 331.5 130.6 311.4 132C308.3 132.2 305.3 132.4 302.3 132.6C278 133.9 256.5 133.6 238.9 131.6C207 128.1 188.3 119.3 190 106C191.7 92.8 213.4 77.5 247.4 63.3C275.9 51.4 313 40.2 354.3 31.7C357.6 31 360.8 30.4 364.1 29.7C372.3 28.1 380.7 26.6 389.2 25.2C398.4 23.7 407.4 22.4 416.1 21.3C420.9 20.7 425.6 20.2 430.2 19.7C462.1 16.3 490.7 15.4 514 16.9C553.5 19.5 577.4 28.8 575.5 43.7Z" fill="#162031" stroke="#162031" stroke-width="2.13" stroke-linecap="round" stroke-linejoin="round"/>
<path d="M310 112.1C307 112.3 304.1 112.5 301.2 112.6C292 113.1 283.1 113.4 274.8 113.4C262.4 113.4 251.1 112.8 241.1 111.7" stroke="#FAF6EB" stroke-width="2.13" stroke-linecap="round" stroke-linejoin="round"/>
<path d="M522.5 62.6C520 63.8 517.5 64.9 514.9 66.1L514.4 66.3" stroke="#FAF6EB" stroke-width="2.13" stroke-linecap="round" stroke-linejoin="round"/>
<path d="M255.1 81.8C282.9 70.2 319.5 59.4 358.3 51.3C361.5 50.7 364.6 50 367.9 49.4C375.9 47.9 384.1 46.4 392.4 45C401.2 43.6 410 42.3 418.7 41.2C423.1 40.6 427.4 40.1 431.5 39.7L432.5 39.6C453.5 37.4 473.1 36.2 491 36.2C498.7 36.2 506.1 36.4 512.9 36.8" stroke="#FAF6EB" stroke-width="2.13" stroke-linecap="round" stroke-linejoin="round"/>
<path d="M553.1 -0.200012C604.3 3.09999 635.4 15.1 632.8 34.4C630.9 49.3 609.5 66.1 575.2 82.3C571.8 83.9 568.2 85.5 564.6 87.1C564.5 87.2 564.4 87.2 564.3 87.2" stroke="#162031" stroke-width="2.13" stroke-linecap="round" stroke-linejoin="round"/>
<path d="M196.2 148.6C154.8 144 130.5 132.6 132.7 115.4C134.9 98.2 163.1 78.4 207.1 60C244.1 44.5 292.3 30.1 345.8 19C350 18.1 354.3 17.3 358.5 16.4C369.2 14.3 380.1 12.4 391.1 10.6C403 8.69998 414.7 6.99998 426.1 5.59998" stroke="#162031" stroke-width="2.13" stroke-linecap="round" stroke-linejoin="round"/>
<path d="M494.1 681.7C438 696.6 381.6 716.5 323.6 713" stroke="#162031" stroke-width="2.13" stroke-linecap="round" stroke-linejoin="round"/>
<path d="M382.4 233.9C408.081 233.9 428.9 213.081 428.9 187.4C428.9 161.719 408.081 140.9 382.4 140.9C356.719 140.9 335.9 161.719 335.9 187.4C335.9 213.081 356.719 233.9 382.4 233.9Z" fill="#33D985"/>
<path d="M351.3 171C360.3 153.8 381.6 147.2 398.7 156.3" stroke="#162031" stroke-width="2.13" stroke-linecap="round" stroke-linejoin="round"/>
<path d="M359.9 175.5C366.4 163.1 381.8 158.3 394.2 164.9" stroke="#162031" stroke-width="2.13" stroke-linecap="round" stroke-linejoin="round"/>
<path d="M382.4 193.7C385.879 193.7 388.7 190.879 388.7 187.4C388.7 183.921 385.879 181.1 382.4 181.1C378.921 181.1 376.1 183.921 376.1 187.4C376.1 190.879 378.921 193.7 382.4 193.7Z" stroke="#162031" stroke-width="2.13" stroke-linecap="round" stroke-linejoin="round"/>
<path d="M385.2 221L372.6 245" stroke="#162031" stroke-width="2.13" stroke-linecap="round" stroke-linejoin="round"/>
<path d="M385.2 221C383.2 220 382.5 217.5 383.5 215.6L385.6 211.7C386.6 209.7 389.1 209 391 210C393 211 393.7 213.5 392.7 215.4L390.6 219.3C389.6 221.3 387.1 222 385.2 221Z" stroke="#162031" stroke-width="2.13" stroke-linecap="round" stroke-linejoin="round"/>
<path d="M303.5 246L374.8 282.3" stroke="#162031" stroke-width="2.13" stroke-linecap="round" stroke-linejoin="round"/>
<path d="M333 281.6L377.1 304.2" stroke="#162031" stroke-width="2.13" stroke-linecap="round" stroke-linejoin="round"/>
<path d="M284.2 256.7L333 281.6" stroke="#33D985" stroke-width="6" stroke-linecap="round" stroke-linejoin="round"/>
<path d="M96.6999 406.9C92.0999 405.2 87.0999 405.3 82.9999 406.8C80.5999 407.6 78.4999 408.8 76.7999 410.2C76.4999 409.1 76.2999 408 75.9999 406.9C75.4999 404.8 74.9999 402.6 74.5999 400.4C76.4999 398.4 78.1999 396.2 79.6999 393.8C83.4999 388.3 86.0999 381.7 86.3999 374.9C86.5999 368.2 86.4999 361.3 83.8999 355.5C83.2999 354 82.5999 353 81.3999 351C80.9999 350.3 80.1999 348.9 79.1999 347.9C78.1999 346.8 76.3999 346.1 74.5999 346.4C70.9999 347.2 69.4999 349.5 68.4999 351.2C67.9999 352.1 67.6999 352.9 67.3999 353.9C67.1999 354.4 67.0999 354.7 66.9999 355.1L66.8999 355.4C66.7999 355.7 66.7999 355.7 66.7999 355.8L66.6999 356.4C65.9999 359.9 66.3999 363.1 66.7999 366.1C67.1999 369.1 67.5999 372 67.8999 374.9C68.2999 379.5 68.9999 384 69.8999 388.5C68.4999 390.5 66.9999 392.5 65.3999 394.3L62.3999 397.7C61.3999 398.8 60.3999 400.1 59.2999 401.4C55.1999 406.6 51.9999 412.5 50.2999 419.1C48.4999 425.6 49.1999 433.3 52.8999 439.1C56.4999 445 62.2999 448.7 68.0999 450.5C73.7999 452.2 79.5999 452.6 85.0999 451.8C85.7999 454.6 86.4999 457.4 87.0999 460C89.2999 466.9 87.2999 473.4 83.0999 475.8C79.9999 477.5 76.7999 476.9 74.6999 475.8C74.8999 475.8 75.0999 475.8 75.3999 475.8C78.6999 475.7 81.1999 472.9 80.9999 469.6C80.8999 466.3 78.0999 463.8 74.7999 464C71.4999 464.1 68.9999 466.9 69.1999 470.2C69.1999 470.5 69.2999 470.7 69.2999 471C69.4999 472.2 70.0999 473.3 70.8999 474.1C71.0999 474.4 71.2999 474.6 71.5999 474.9C72.6999 476 74.1999 477.1 76.2999 477.7C78.3999 478.3 80.9999 478.4 83.7999 477.3C86.4999 476.2 88.9999 473.6 89.9999 470.2C90.4999 468.5 90.7999 466.7 90.5999 464.8C90.3999 462.8 89.9999 461.1 89.5999 459.3C88.9999 456.7 88.2999 454 87.5999 451.2C92.4999 450.2 96.9999 448.2 101 445.5C105.4 442.2 108.7 437.4 109.7 432.1C110.8 426.8 109.8 421.3 107.5 416.8C105.4 412.3 101.4 408.6 96.6999 406.9ZM71.9999 361.8C72.6999 359.4 73.8999 352.8 77.5999 353.7C79.8999 354.3 80.4999 357.4 80.5999 359.4C80.8999 364.1 79.9999 369 77.9999 373.3C76.0999 377.5 74.0999 381.4 71.7999 385.3C71.2999 381.8 70.8999 378.3 70.5999 374.7C70.3999 370.4 70.8999 366 71.9999 361.8ZM69.8999 445.9C65.0999 443.8 60.7999 440.4 58.5999 435.9C56.3999 431.5 56.3999 426.3 58.1999 421.4C59.9999 416.5 63.3999 412 67.0999 408C67.9999 407 68.8999 406 70.0999 404.9L71.6999 403.4C72.0999 403 72.3999 402.7 72.7999 402.3C73.1999 404 73.5999 405.7 73.8999 407.4C74.1999 408.9 74.5999 410.3 74.8999 411.8C71.5999 415.1 69.6999 419.1 69.0999 422.6C68.0999 428.5 69.6999 433 70.9999 435.6C71.5999 436.9 72.2999 437.9 72.6999 438.5C73.0999 439.1 73.3999 439.4 73.3999 439.4C73.3999 439.4 72.8999 437.9 72.3999 435.1C71.9999 432.4 71.5999 428.2 73.2999 423.7C73.9999 421.9 74.9999 420 76.4999 418.3C77.9999 424.4 79.4999 430.4 80.9999 435.9C82.0999 440.2 83.1999 444.4 84.2999 448.3C79.3999 448.7 74.2999 447.9 69.8999 445.9ZM106.7 431.7C106.4 436.2 103.8 440.6 99.6999 443.4C96.0999 445.9 91.6999 447.5 86.9999 448.1C85.8999 444 84.6999 439.8 83.3999 435.3C81.6999 429.4 79.9999 423.1 78.2999 416.5C80.0999 414.9 82.2999 413.6 84.8999 412.9C90.7999 411.3 98.1999 413.2 103 419.7C105.4 423 107 427.3 106.7 431.7Z" fill="#162031" stroke="#162031" stroke-width="2.13" stroke-linecap="round" stroke-linejoin="round"/>
<path d="M274.2 306.4L259.4 281.4L288.4 281L274.2 306.4Z" fill="#162031" stroke="#162031" stroke-width="2.13" stroke-linecap="round" stroke-linejoin="round"/>
<path d="M338.1 342.2L367.2 341.9L352.3 316.9L338.1 342.2Z" fill="#162031" stroke="#162031" stroke-width="2.13" stroke-linecap="round" stroke-linejoin="round"/>
<path d="M311.618 294.106L297.376 319.481L304.788 323.641L319.03 298.266L311.618 294.106Z" fill="#162031" stroke="#162031" stroke-width="2.1299" stroke-miterlimit="3.9998" stroke-linecap="round" stroke-linejoin="round"/>
<path d="M324.285 301.193L310.044 326.568L317.456 330.728L331.697 305.353L324.285 301.193Z" fill="#162031" stroke="#162031" stroke-width="2.1299" stroke-miterlimit="3.9998" stroke-linecap="round" stroke-linejoin="round"/>
</g>
<defs>
<clipPath id="clip0_269_218">
<rect width="633" height="713" fill="white"/>
</clipPath>
</defs>
</svg>
